<?xml version="1.0"?>
<svg viewBox="0 0 204 204" xmlns="http://www.w3.org/2000/svg" xmlns:xlink="http://www.w3.org/1999/xlink">
<linearGradient id="i" gradientTransform="matrix(1.025 0 0 .9758 -139.9 -107.9)" x1="1918" x2="1537" xlink:href="#a" y1="152.5" y2="152.5"/>
<linearGradient id="h" gradientTransform="matrix(1.102 0 0 .9071 -139.9 -107.9)" x1="244.9" x2="244.9" xlink:href="#a" y1="739.8" y2="739.8"/>
<linearGradient id="g" gradientTransform="matrix(1.138 0 0 .8787 -139.9 -107.9)" x1="215.6" x2="229.4" xlink:href="#a" y1="615.8" y2="615.8"/>
<linearGradient id="f" gradientTransform="matrix(.958 0 0 1.044 -139.9 -107.9)" x1="1744" x2="1838" xlink:href="#a" y1="146.5" y2="146.5"/>
<linearGradient id="e" gradientTransform="matrix(.9964 0 0 1.004 -139.9 -107.9)" gradientUnits="userSpaceOnUse" x1="597.3" x2="852.8" y1="111.6" y2="111.6">
<stop offset="0" stop-color="#06f" stop-opacity=".1"/>
<stop offset="1" stop-color="#fff" stop-opacity="0"/>
</linearGradient>
<linearGradient id="d" gradientTransform="matrix(1.055 0 0 .9477 -139.9 -107.9)" x1="190.6" x2="215.4" xlink:href="#a" y1="483.2" y2="483.2"/>
<linearGradient id="c" gradientTransform="matrix(1.183 0 0 .8456 -139.9 -107.9)" x1="220.9" x2="201.8" xlink:href="#a" y1="466.4" y2="466.4"/>
<linearGradient id="b" gradientTransform="matrix(1.036 0 0 .9648 -139.9 -107.9)" x1="286.5" x2="271" xlink:href="#a" y1="547.8" y2="547.8"/>
<linearGradient id="a" gradientUnits="userSpaceOnUse">
<stop offset="0" stop-color="#b0b0b0"/>
<stop offset="1" stop-color="#e8e8e9"/>
</linearGradient>
<use transform="matrix(-1 0 0 1 204 0)" xlink:href="#j"/>
<g id="j" transform="translate(1.67 1.6)">
<path d="m40.77 12.75l102.6 114.6-24.66 17.47-114.5-109.4-3.66-34.69z" stroke="#000"/>
<path d="m39.29 12.5l102.2 114.6-11.57 8.53-128.8-133.6 38.22 10.49z" fill="url(#i)" stroke-width="1.25"/>
<path d="m188.1 171.6l5.58 11.28-20.15 14.55-10.57-6.46" stroke="#000"/>
<path d="m188.1 172.6l3.91 9.78-18.28 13.83-10.41-4.99" fill="url(#h)"/>
<path d="m142.4 127.4l9.57 11.04 1.85.64 1.83 1.58-.38 1.58 2.56 2.92 2.17.56 1.58 1.71-.23 1.56 2.53 3.21.01-.01 2.15.16 1.64 1.84-.47 1.69 2.65 2.59 2.35.59 1.44 1.41-.47 1.69 2.12 2.68 2.19.2 1.89 1.8-.71 1.67-.05.02.38.41-7.04 5.38 8.97-2.68 2.28.45 1.5 1.55-.47 1.69-22.43 6.77-1.59 1.21-.64-.61-2.17-.13-1.61-1.73-.09-1.42-3-3.33-2.21-.06-1.34-1.76-.05-1.41-2.6-2.71-2.47-.12-1.75-1.5.31-1.97-2.64-2.34-2.43-.58-1.43-1.47.09-1.81-3.08-2.77-2.22-.52-1.5-1.55-.06-1.51-2.82-3.07-2.41-.33-1.5-1.55.18-1.7-3.26-3.14 22.89-16.82z" stroke="#000" stroke-width="1.2"/>
<path d="m141.6 127.5l37.46 41.49-18.79 14.38-40.71-39.09 22.03-16.78z" fill="#303030" stroke-width="1.2"/>
<g stroke="#000">
<path d="m155 142.4l-28.32 8.62-2.44-.34-1.51-1.55.17-1.73 28.78-8.69 2.28.45 1.51 1.55-.48 1.68z" fill="#009"/>
<path d="m184.3 175.4l-24.5 7.4-2.44-.34-1.51-1.55.17-1.73 24.95-7.47 2.28.45 1.51 1.55-.48 1.68z" fill="#009"/>
<path d="m200 169.1l-42.8 31.04-10.34-8.35 45.36-34.4z"/>
</g>
<g fill="#009" stroke="#000">
<path d="m178.8 168.6l-25.57 7.66-2.44-.34-1.51-1.55.17-1.73 26.03-7.73 2.28.45 1.51 1.55-.48 1.68z"/>
<path d="m173.3 162.2l-26.79 8.03-2.44-.34-1.51-1.55.17-1.73 27.25-8.1 2.28.45 1.51 1.55-.48 1.68z"/>
<path d="m167.3 156l-27.25 8.1-2.44-.34-1.51-1.55.17-1.73 27.71-8.17 2.28.45 1.51 1.55-.48 1.68z"/>
<path d="m161.2 149l-27.71 8.44-2.44-.34-1.51-1.55.17-1.73 28.17-8.51 2.28.45 1.51 1.55-.48 1.68z"/>
</g>
<g stroke-width="1.25">
<path d="m147.4 191.8l9.98 7.41 21.07-14.84-7.48-9.14-23.57 16.56z" fill="url(#g)"/>
<path d="m6.39 36.76l112.7 106.8 11.57-8.53-129.8-132.9 5.53 34.6z" fill="url(#f)"/>
<path d="m39.55 12.21l102.2 114.6-10.76 7.93-.81.6-10.76 7.93-112.7-106.8-5.87-34.38 26.29 26.35-26.12-26.5z" fill="url(#e)"/>
</g>
<path d="m159.6 113.9l11.44 13-32.68 15.52-24.19 24.88-12.03-11.93 29.02-20.01z" stroke="#000"/>
<g stroke-width="1.25">
<path d="m103.4 155.9l10.75 10.36 23.54-24.02-6.33-6.78z" fill="url(#d)"/>
<path d="m159.4 115.1l9.94 10.96-31.86 16.32-6.3-6.82z" fill="url(#c)"/>
<path d="m191.9 158.7l6.73 9.81-20.45 16.16-7.45-9.21z" fill="url(#b)"/>
</g>
<path d="m131.3 134.8l-1.68 1.24-128.7-133.9.26-.1z" stroke-linejoin="round" stroke-width="3.75"/>
</g>
</svg>
