<?xml version="1.0"?>
<svg xmlns:rdf="http://www.w3.org/1999/02/22-rdf-syntax-ns#" xmlns="http://www.w3.org/2000/svg" xmlns:cc="http://creativecommons.org/ns#" xmlns:xlink="http://www.w3.org/1999/xlink" xmlns:dc="http://purl.org/dc/elements/1.1/" xmlns:svg="http://www.w3.org/2000/svg" id="svg2" viewBox="0 0 128 128" version="1.0">
  <defs id="defs4">
    <linearGradient id="linearGradient2338">
      <stop id="stop2340" stop-color="#b1b1b1" offset="0"/>
      <stop id="stop2342" stop-color="#e4e4e4" offset="1"/>
    </linearGradient>
    <linearGradient id="linearGradient2320">
      <stop id="stop2322" stop-color="#6a3c1d" offset="0"/>
      <stop id="stop2324" stop-color="#8f5127" offset="1"/>
    </linearGradient>
    <linearGradient id="linearGradient2503" x1="19.546" xlink:href="#linearGradient2338" gradientUnits="userSpaceOnUse" y1="93.924" gradientTransform="translate(2.2486 .17297)" x2="38.659" y2="112.78"/>
    <linearGradient id="linearGradient2507" x1="58.984" xlink:href="#linearGradient2338" gradientUnits="userSpaceOnUse" y1="116.15" gradientTransform="translate(2.2486 .17297)" x2="72.908" y2="91.935"/>
    <linearGradient id="linearGradient2511" x1="18.595" xlink:href="#linearGradient2338" gradientUnits="userSpaceOnUse" y1="59.849" gradientTransform="translate(2.2486 .17297)" x2="50.508" y2="102.31"/>
    <linearGradient id="linearGradient2517" x1="32.951" xlink:href="#linearGradient2338" gradientUnits="userSpaceOnUse" y1="31.395" gradientTransform="translate(2.2486 .17297)" x2="52.93" y2="60.973"/>
    <linearGradient id="linearGradient2521" x1="59.935" xlink:href="#linearGradient2338" gradientUnits="userSpaceOnUse" y1="103.44" gradientTransform="translate(2.2486 .17297)" x2="103.01" y2="70.919"/>
    <linearGradient id="linearGradient2525" x1="64" xlink:href="#linearGradient2338" gradientUnits="userSpaceOnUse" y1="122.38" gradientTransform="translate(2.2486 .17297)" x2="88.649" y2="105.34"/>
    <linearGradient id="linearGradient2529" x1="103.78" xlink:href="#linearGradient2338" gradientUnits="userSpaceOnUse" y1="110.7" gradientTransform="translate(2.2486 .17297)" x2="116.5" y2="98.076"/>
    <linearGradient id="linearGradient2533" x1="61.607" xlink:href="#linearGradient2338" gradientUnits="userSpaceOnUse" y1="61.974" gradientTransform="translate(2.2486 .17297)" x2="86.621" y2="40.23"/>
    <linearGradient id="linearGradient2537" x1="98.844" xlink:href="#linearGradient2338" gradientUnits="userSpaceOnUse" y1="102.75" gradientTransform="translate(2.2486 .17297)" x2="104.84" y2="112.81"/>
    <linearGradient id="linearGradient2541" x1="82.531" xlink:href="#linearGradient2338" gradientUnits="userSpaceOnUse" y1="106.25" gradientTransform="translate(2.2486 .17297)" x2="82.125" y2="104.84"/>
    <linearGradient id="linearGradient2545" x1="82.531" xlink:href="#linearGradient2338" gradientUnits="userSpaceOnUse" y1="106.25" gradientTransform="translate(3.8424 2.923)" x2="82.125" y2="104.84"/>
    <linearGradient id="linearGradient2549" x1="82.531" xlink:href="#linearGradient2338" gradientUnits="userSpaceOnUse" y1="106.25" gradientTransform="translate(5.2799 5.048)" x2="82.125" y2="104.84"/>
    <linearGradient id="linearGradient2553" x1="82.531" xlink:href="#linearGradient2338" gradientUnits="userSpaceOnUse" y1="106.25" gradientTransform="translate(6.6861 7.298)" x2="82.125" y2="104.84"/>
    <linearGradient id="linearGradient2557" x1="82.531" xlink:href="#linearGradient2338" gradientUnits="userSpaceOnUse" y1="106.25" gradientTransform="translate(8.1861 9.3917)" x2="82.125" y2="104.84"/>
    <linearGradient id="linearGradient2561" x1="83.344" xlink:href="#linearGradient2338" gradientUnits="userSpaceOnUse" y1="107.53" gradientTransform="translate(2.2486 .17297)" x2="83.031" y2="106.59"/>
    <linearGradient id="linearGradient2565" x1="83.344" xlink:href="#linearGradient2338" gradientUnits="userSpaceOnUse" y1="107.53" gradientTransform="translate(3.4986 2.6105)" x2="83.031" y2="106.59"/>
    <linearGradient id="linearGradient2569" x1="83.344" xlink:href="#linearGradient2338" gradientUnits="userSpaceOnUse" y1="107.53" gradientTransform="translate(4.9361 5.1105)" x2="83.031" y2="106.59"/>
    <linearGradient id="linearGradient2573" x1="83.344" xlink:href="#linearGradient2338" gradientUnits="userSpaceOnUse" y1="107.53" gradientTransform="translate(6.3424 6.9542)" x2="83.031" y2="106.59"/>
    <linearGradient id="linearGradient3462">
      <stop id="stop3464" stop-color="#4f0000" offset="0"/>
      <stop id="stop3466" stop-color="#610000" offset="1"/>
    </linearGradient>
    <linearGradient id="linearGradient2404">
      <stop id="stop2406" stop-color="#b49900" offset="0"/>
      <stop id="stop2412" stop-color="#ffda0a" offset=".5"/>
      <stop id="stop2408" stop-color="#c6a800" offset="1"/>
    </linearGradient>
    <linearGradient id="linearGradient3098">
      <stop id="stop3100" stop-color="#9e2612" offset="0"/>
      <stop id="stop3102" stop-color="#bd5032" offset="1"/>
    </linearGradient>
    <linearGradient id="linearGradient3106" x1="84.058" xlink:href="#linearGradient3462" gradientUnits="userSpaceOnUse" y1="103.39" gradientTransform="translate(2.2486 .17297)" x2="87.972" y2="97.85"/>
    <linearGradient id="linearGradient3110" x1="86.443" xlink:href="#linearGradient3462" gradientUnits="userSpaceOnUse" y1="105.16" gradientTransform="translate(2.2486 .17297)" x2="86.504" y2="103.42"/>
    <linearGradient id="linearGradient3115" x1="86.443" xlink:href="#linearGradient3462" gradientUnits="userSpaceOnUse" y1="105.16" gradientTransform="translate(4.0221 2.8944)" x2="86.473" y2="104.09"/>
    <linearGradient id="linearGradient3119" x1="86.443" xlink:href="#linearGradient3462" gradientUnits="userSpaceOnUse" y1="105.16" gradientTransform="translate(5.3981 5.0654)" x2="86.473" y2="103.84"/>
    <linearGradient id="linearGradient3123" x1="86.443" xlink:href="#linearGradient3462" gradientUnits="userSpaceOnUse" y1="105.16" gradientTransform="translate(6.9576 7.1752)" x2="86.382" y2="103.97"/>
    <linearGradient id="linearGradient3127" x1="86.443" xlink:href="#linearGradient3462" gradientUnits="userSpaceOnUse" y1="105.16" gradientTransform="translate(8.5476 9.4074)" x2="86.473" y2="103.86"/>
    <linearGradient id="linearGradient3131" x1="86.81" xlink:href="#linearGradient3462" gradientUnits="userSpaceOnUse" y1="106.05" gradientTransform="translate(2.2486 .17297)" x2="88.002" y2="104.18"/>
    <linearGradient id="linearGradient3135" x1="86.81" xlink:href="#linearGradient3462" gradientUnits="userSpaceOnUse" y1="106.05" gradientTransform="translate(3.6552 2.7109)" x2="88.002" y2="104.18"/>
    <linearGradient id="linearGradient3139" x1="86.81" xlink:href="#linearGradient3462" gradientUnits="userSpaceOnUse" y1="106.05" gradientTransform="translate(5.1229 4.9125)" x2="88.002" y2="104.18"/>
    <linearGradient id="linearGradient3143" x1="86.81" xlink:href="#linearGradient3462" gradientUnits="userSpaceOnUse" y1="106.05" gradientTransform="translate(6.5295 7.1141)" x2="88.002" y2="104.18"/>
    <linearGradient id="linearGradient3147" x1="73.141" xlink:href="#linearGradient2404" gradientUnits="userSpaceOnUse" y1="101.04" gradientTransform="translate(2.2486 .17297)" x2="93.824" y2="81.287"/>
    <linearGradient id="linearGradient3730" x1="75.395" xlink:href="#linearGradient2404" gradientUnits="userSpaceOnUse" y1="99.539" gradientTransform="translate(2.2486 .17297)" x2="82.952" y2="93.396"/>
    <linearGradient id="linearGradient3734" x1="86.046" xlink:href="#linearGradient2404" gradientUnits="userSpaceOnUse" y1="87.032" gradientTransform="translate(2.2486 .17297)" x2="92.366" y2="93.705"/>
    <linearGradient id="linearGradient3738" x1="106.29" xlink:href="#linearGradient2320" gradientUnits="userSpaceOnUse" y1="83.496" gradientTransform="translate(2.2486 .17297)" x2="105.93" y2="84.049"/>
    <linearGradient id="linearGradient3742" x1="104.65" gradientUnits="userSpaceOnUse" y1="85.021" gradientTransform="translate(2.2486 .17297)" x2="111.1" y2="93.727">
      <stop id="stop3195" stop-color="#c2a05c" offset="0"/>
      <stop id="stop3197" stop-color="#d6be91" offset="1"/>
    </linearGradient>
    <linearGradient id="linearGradient3750" x1="18.031" xlink:href="#linearGradient2338" gradientUnits="userSpaceOnUse" y1="67.631" gradientTransform="translate(2.2486 .17297)" x2="21.567" y2="80.889"/>
    <linearGradient id="linearGradient3758" x1="18.031" xlink:href="#linearGradient2338" gradientUnits="userSpaceOnUse" y1="67.631" gradientTransform="translate(14.667 8.2163)" x2="21.567" y2="80.889"/>
    <linearGradient id="linearGradient3764" x1="18.031" xlink:href="#linearGradient2338" gradientUnits="userSpaceOnUse" y1="67.631" gradientTransform="translate(27.174 16.348)" x2="21.567" y2="80.889"/>
    <linearGradient id="linearGradient3770" x1="18.031" xlink:href="#linearGradient2338" gradientUnits="userSpaceOnUse" y1="67.631" gradientTransform="translate(20.28 -31.514)" x2="21.567" y2="80.889"/>
    <linearGradient id="linearGradient3776" x1="18.031" xlink:href="#linearGradient2338" gradientUnits="userSpaceOnUse" y1="67.631" gradientTransform="translate(32.08 -23.648)" x2="21.567" y2="80.889"/>
    <linearGradient id="linearGradient3782" x1="22.451" xlink:href="#linearGradient2338" gradientUnits="userSpaceOnUse" y1="65.381" gradientTransform="translate(50.111 -17.681)" x2="16.352" y2="76.514"/>
    <linearGradient id="linearGradient3788" x1="22.451" xlink:href="#linearGradient2338" gradientUnits="userSpaceOnUse" y1="65.381" gradientTransform="translate(65.711 -22.631)" x2="16.352" y2="75.764"/>
    <linearGradient id="linearGradient3792" x1="39.812" xlink:href="#linearGradient3098" gradientUnits="userSpaceOnUse" y1="47.562" gradientTransform="translate(2.2486 .17297)" x2="51.375" y2="79.25"/>
    <linearGradient id="linearGradient3796" x1="68.25" xlink:href="#linearGradient3098" gradientUnits="userSpaceOnUse" y1="73.625" gradientTransform="translate(2.2486 .17297)" x2="96.25" y2="61.5"/>
    <linearGradient id="linearGradient3806" x1="92.125" xlink:href="#linearGradient3098" gradientUnits="userSpaceOnUse" y1="56.875" gradientTransform="translate(2.2486 .17297)" x2="94.438" y2="39.938"/>
    <linearGradient id="linearGradient3810" x1="71.188" xlink:href="#linearGradient3098" gradientUnits="userSpaceOnUse" y1="34.812" gradientTransform="translate(2.2486 .17297)" x2="86.75" y2="23.188"/>
    <linearGradient id="linearGradient3814" x1="49" xlink:href="#linearGradient3098" gradientUnits="userSpaceOnUse" y1="16.562" gradientTransform="translate(2.2486 .17297)" x2="66.562" y2="42.625"/>
    <linearGradient id="linearGradient3818" x1="66.875" xlink:href="#linearGradient3098" gradientUnits="userSpaceOnUse" y1="23.562" gradientTransform="translate(2.2486 .17297)" x2="67.438" y2="12.812"/>
    <linearGradient id="linearGradient3822" x1="73.625" gradientUnits="userSpaceOnUse" y1="19.375" gradientTransform="translate(2.2486 .17297)" x2="75.375" y2="17.312">
      <stop id="stop3110" stop-color="#c223c2" offset="0"/>
      <stop id="stop3112" stop-color="#ff00dc" offset="1"/>
    </linearGradient>
    <linearGradient id="linearGradient3824" x1="17.589" xlink:href="#linearGradient2320" gradientUnits="userSpaceOnUse" y1="68.304" gradientTransform="translate(2.2486 .17297)" x2="19.401" y2="77.472"/>
    <linearGradient id="linearGradient3826" x1="30.008" xlink:href="#linearGradient2320" gradientUnits="userSpaceOnUse" y1="77.385" gradientTransform="translate(2.2486 .17297)" x2="33.632" y2="85.515"/>
    <linearGradient id="linearGradient3828" x1="42.515" xlink:href="#linearGradient2320" gradientUnits="userSpaceOnUse" y1="86.209" gradientTransform="translate(2.2486 .17297)" x2="46.139" y2="93.301"/>
    <linearGradient id="linearGradient3830" x1="80.964" xlink:href="#linearGradient2320" gradientUnits="userSpaceOnUse" y1="49.034" gradientTransform="translate(2.2486 .17297)" x2="84.588" y2="43.844"/>
    <linearGradient id="linearGradient3832" x1="65.363" xlink:href="#linearGradient2320" gradientUnits="userSpaceOnUse" y1="52.945" gradientTransform="translate(2.2486 .17297)" x2="68.987" y2="46.891"/>
    <linearGradient id="linearGradient3834" x1="47.42" xlink:href="#linearGradient2320" gradientUnits="userSpaceOnUse" y1="44.49" gradientTransform="translate(2.2486 .17297)" x2="51.044" y2="51.582"/>
    <linearGradient id="linearGradient3836" x1="35.621" xlink:href="#linearGradient2320" gradientUnits="userSpaceOnUse" y1="36.623" gradientTransform="translate(2.2486 .17297)" x2="39.244" y2="43.888"/>
    <linearGradient id="linearGradient3893">
      <stop id="stop3132" stop-color="#8dbbdc" offset="0"/>
      <stop id="stop3134" stop-color="#dadada" offset="1"/>
    </linearGradient>
    <linearGradient id="linearGradient3953" x1="63.595" xlink:href="#linearGradient3893" gradientUnits="userSpaceOnUse" y1="91.385" gradientTransform="translate(2.2486 .17297)" x2="66.468" y2="92.711"/>
    <linearGradient id="linearGradient3961" x1="65.452" xlink:href="#linearGradient3893" gradientUnits="userSpaceOnUse" y1="91.021" gradientTransform="translate(2.2486 .17297)" x2="64.214" y2="93.274"/>
    <linearGradient id="linearGradient3969" x1="86.074" xlink:href="#linearGradient2404" gradientUnits="userSpaceOnUse" y1="109.43" gradientTransform="translate(2.2486 .17297)" x2="91" y2="107.22"/>
    <linearGradient id="linearGradient3973" x1="86.074" xlink:href="#linearGradient2404" gradientUnits="userSpaceOnUse" y1="109.43" gradientTransform="translate(9.8279 -2.4787)" x2="91" y2="107.22"/>
    <filter id="filter3997">
      <feGaussianBlur id="feGaussianBlur3999" stdDeviation="1.7712433"/>
    </filter>
  </defs>
  <g id="layer2" fill-rule="evenodd">
    <path id="path3975" filter="url(#filter3997)" fill-opacity=".66667" d="m55.178 119.7c-0.864-0.69-49.989-29.927-49.989-29.927l-0.3458-4.67 6.3998-0.692-5.3619-16.26 5.7079-10.897-1.9025-8.649 5.5355-8.302 12.454-1.038 6.4 4.67 67.464 48.606-46.362 27.159z"/>
    <path id="path2501" fill="url(#linearGradient2503)" d="m7.0919 82.768l-0.0865 5.881 55.438 37.191-0.173-6.14-55.178-36.932z"/>
    <path id="path2505" fill="url(#linearGradient2507)" d="m7.0919 82.595l55.178 37.275 24.995-8.99-5.795-5.28 17.298-6.227 5.972 5.447 21.79-7.782-15.83-10.984-95.911-6.14-7.6971 2.681z"/>
    <path id="path2509" fill="url(#linearGradient2511)" d="m15.222 54.832l-0.173 26.984 41.081 27.154 0.086-27.846-40.994-26.292z"/>
    <path id="path2515" fill="url(#linearGradient2517)" d="m32 24.649l-0.519 19.892 29.665 20.583 0.086-21.448-29.232-19.027z"/>
    <path id="path2519" fill="url(#linearGradient2521)" d="m56.303 108.89l-0.087-27.939 54.834-18.94 0.09 27.675-54.837 19.204z"/>
    <path id="path2523" fill="url(#linearGradient2525)" d="m62.357 119.7l24.908-8.91v6.05l-24.908 9.08v-6.22z"/>
    <path id="path2527" fill="url(#linearGradient2529)" d="m104.74 110.88v-6.06l21.96-8.042 0.26 0.692-0.08 5.62-22.14 7.79z"/>
    <path id="path2531" fill="url(#linearGradient2533)" d="m60.85 64.975l0.442-21.301 31.024-10.253 0.973 20.152-14.496 1.414-17.943 9.988z"/>
    <path id="path2535" fill="url(#linearGradient2537)" d="m98.717 99.298l-0.031 2.532 1.624 1.03-0.06 1.75 1.44 0.75-0.04 1.47 1.57 1.16 0.06 0.87 1.44 0.97-0.07-5.13-5.933-5.402z"/>
    <path id="path2539" fill="url(#linearGradient2541)" d="m81.592 105.64l17.157-6.28v2.38l-15.469 5.56-1.688-1.66z"/>
    <path id="path2543" fill="url(#linearGradient2545)" d="m84.749 108.36l15.561-5.62 0.03 1.75-14.529 5.25-1.062-1.38z"/>
    <path id="path2547" fill="url(#linearGradient2549)" d="m86.936 110.61l14.714-5.25v1.41l-14.683 5.12-0.031-1.28z"/>
    <path id="path2551" fill="url(#linearGradient2553)" d="m87.28 113.27l15.87-5.57 0.04 1.16-15.973 5.47 0.063-1.06z"/>
    <path id="path2555" fill="url(#linearGradient2557)" d="m87.186 115.74l17.434-6.07 0.07 1.28-17.254 6.22-0.25-1.43z"/>
    <path id="path2559" fill="url(#linearGradient2561)" d="m83.342 107.17l15.375-5.43 1.593 1.09-15.843 5.62-1.125-1.28z"/>
    <path id="path2563" fill="url(#linearGradient2565)" d="m85.999 109.7l14.191-5.09 1.37 0.66-14.624 5.37-0.937-0.94z"/>
    <path id="path2567" fill="url(#linearGradient2569)" d="m87.124 111.83l14.406-5.06 1.47 1-15.845 5.62-0.031-1.56z"/>
    <path id="path2571" fill="url(#linearGradient2573)" d="m87.374 114.3l15.846-5.5 1.18 0.81-17.12 6.09 0.094-1.4z"/>
    <path id="path3104" fill="url(#linearGradient3106)" d="m80.466 100.56l4.495 3.55-0.061 0.21 10.243-3.67-4.709-3.788-9.968 3.698z"/>
    <path id="path3108" d="m84.961 104.35l0.306 2.14 10.304-3.64-0.275-2.17-10.335 3.67z" fill="url(#linearGradient3110)"/>
    <path id="path3112" fill="url(#linearGradient3115)" d="m86.735 107.59l0.305 1.62 10.305-3.63-0.214-1.66c-3.506 1.23-7.116 2.45-10.396 3.67z"/>
    <path id="path3117" fill="url(#linearGradient3119)" d="m88.238 110.07l0.178 1.32 10.305-3.64v-1.32l-10.483 3.64z"/>
    <path id="path3121" fill="url(#linearGradient3123)" d="m89.792 112.33l0.184 1.17 10.304-3.64-0.18-1.07-10.308 3.54z"/>
    <path id="path3125" fill="url(#linearGradient3127)" d="m91.505 114.26l0.061 1.47 10.304-3.64c-0.07-0.31 0.07-0.59 0.07-0.98l-0.34-0.31-10.095 3.46z"/>
    <path id="path3129" fill="url(#linearGradient3131)" d="m86.826 107.47l-1.376-1.07 10.091-3.58 1.559 1.2-10.274 3.45z"/>
    <path id="path3133" fill="url(#linearGradient3135)" d="m88.233 110.01l-1.04-0.73 9.877-3.58 1.437 0.85-10.274 3.46z"/>
    <path id="path3137" fill="url(#linearGradient3139)" d="m89.884 112.33l-1.376-1.01 10.121-3.51 1.346 0.95-10.091 3.57z"/>
    <path id="path3141" fill="url(#linearGradient3143)" d="m91.413 114.38l-1.498-0.91 10.245-3.43 1.4 0.83-10.147 3.51z"/>
    <path id="path3145" d="m74.462 102.23l0.221-14.185 22.406-7.558 0.045 14.098-22.672 7.645z" fill="url(#linearGradient3147)"/>
    <path id="path3149" fill-opacity=".15686" d="m74.462 102.23l0.221-14.185 22.406-7.558 0.045 14.098-22.672 7.645z"/>
    <path id="path3728" d="m75.92 101.61l-0.044-12.681 9.325-3.403v13.214l-9.281 2.87z" fill="url(#linearGradient3730)"/>
    <path id="path3732" fill="url(#linearGradient3734)" d="m86.527 97.767l-0.177-12.551 9.325-3.182 0.265 12.772-9.413 2.961z"/>
    <path id="path3736" fill="url(#linearGradient3738)" d="m101.55 77.703l-1.1 0.531 0.22 1.149 14.01 10.518 1.02 0.84 0.79-0.133v-1.149l-7.87-6.364-7.07-5.392z"/>
    <path id="path3740" d="m105.27 83.007c-0.14 0.441-0.18 6.363-0.18 6.363l9.41 6.055-0.04-5.613-9.19-6.805z" fill="url(#linearGradient3742)"/>
    <path id="path3744" fill-opacity=".15686" d="m116.14 89.282l-0.84 0.354-0.36 0.397 1.02 0.752 0.49-0.265 0.08-0.84-0.39-0.398z"/>
    <path id="path3746" fill-opacity=".15686" d="m98.717 99.298l-0.031 2.532 1.624 1.03-0.06 1.75 1.44 0.75-0.04 1.47 1.57 1.16 0.06 0.87 1.44 0.97-0.07-5.13-5.933-5.402z"/>
    <path id="path3748" fill="url(#linearGradient3750)" d="m18.689 61.617l-0.089 18.473 6.188 4.154v-18.65l-6.099-3.977z"/>
    <path id="path3752" fill="url(#linearGradient3824)" d="m19.838 64.091l0.088 15.026 3.536 2.74-0.177-15.202-3.447-2.564z"/>
    <path id="path3754" fill="url(#linearGradient3758)" d="m31.107 69.66l-0.088 18.473 6.187 4.154v-18.65l-6.099-3.977z"/>
    <path id="path3756" fill="url(#linearGradient3826)" d="m32.256 72.135l0.089 15.026 3.535 2.74-0.176-15.203-3.448-2.563z"/>
    <path id="path3760" fill="url(#linearGradient3764)" d="m43.614 77.792l-0.088 18.473 6.187 4.155v-18.651l-6.099-3.977z"/>
    <path id="path3762" fill="url(#linearGradient3828)" d="m44.763 80.266l0.089 15.027 3.535 2.74-0.176-15.203-3.448-2.564z"/>
    <path id="path3766" fill="url(#linearGradient3770)" d="m36.72 29.929l-0.088 15.071 6.187 4.154v-15.247l-6.099-3.978z"/>
    <path id="path3768" fill="url(#linearGradient3836)" d="m37.869 32.404l0.044 11.8 3.58 2.519-0.177-11.756-3.447-2.563z"/>
    <path id="path3772" fill="url(#linearGradient3776)" d="m48.52 37.796l-0.088 15.07 6.187 4.154v-15.247l-6.099-3.977z"/>
    <path id="path3774" fill="url(#linearGradient3834)" d="m49.669 40.271l0.044 11.8 3.58 2.519-0.177-11.756-3.447-2.563z"/>
    <path id="path3778" fill="url(#linearGradient3782)" d="m66.551 43.762l-0.088 15.07 5.922-1.944 0.177-15.115-6.011 1.989z"/>
    <path id="path3780" fill="url(#linearGradient3832)" d="m67.7 45.309l-0.088 11.49 3.624-1.237-0.177-11.314-3.359 1.061z"/>
    <path id="path3784" fill="url(#linearGradient3788)" d="m82.152 38.812l-0.089 15.071 5.922-1.945 0.177-15.114-6.01 1.988z"/>
    <path id="path3786" fill="url(#linearGradient3830)" d="m83.301 40.359l-0.089 11.491 3.624-1.238-0.176-11.314-3.359 1.061z"/>
    <path id="path3790" fill="url(#linearGradient3792)" d="m15.186 54.673l16.375-10.25 29.313 20.562 17.687-9.75 5.375 3.688-27.687 21.75-41.063-26z"/>
    <path id="path3794" fill="url(#linearGradient3796)" d="m56.436 80.61l27.563-21.687 27.001 3.187-53.626 18.75-0.938-0.25z"/>
    <path id="path3798" fill="url(#linearGradient3806)" d="m78.811 54.985l14.375-1.437-0.187-4.063 1.375 0.938 16.246 11.25-26.559-2.625-5.25-4.063z"/>
    <path id="path3808" fill="url(#linearGradient3810)" d="m72.874 27.485l-11.313 15.875 0.563 0.5 30.125-10.437-0.625-0.688-18.75-5.25z"/>
    <path id="path3812" fill="url(#linearGradient3814)" d="m31.936 24.36l18.813-10.875 22.25 14-11.625 16.063-29.438-19.188z"/>
    <path id="path3816" fill="url(#linearGradient3818)" d="m50.811 13.36l22.188 14.188 17.812 5.125s-8.25-5.75-8.687-6.188c-0.438-0.437-19.375-13.187-19.375-13.187l-11.938 0.062z"/>
    <path id="path3820" fill="url(#linearGradient3822)" d="m73.124 16.048l1.5 0.437 2.375 0.438h3.312l4.563-0.813-0.375 0.5-1 0.563-1.625 0.75-2 0.312 0.625 0.563 1.5 0.937 1.312 0.688s-1.25 0.312-2 0.25c-0.75-0.063-3.812-0.125-3.812-0.125l-3.5-0.375-1.125-0.438 0.25-3.687z"/>
    <path id="path3838" fill-opacity=".15686" d="m7.0919 82.768l-0.0865 5.881 55.438 37.191-0.173-6.14-55.178-36.932z"/>
    <path id="path3840" fill-opacity=".15686" d="m15.222 54.832l-0.173 26.984 41.081 27.154 0.086-27.846-40.994-26.292z"/>
    <path id="path3842" fill-opacity=".15686" d="m32 24.649l-0.519 19.892 29.665 20.583 0.086-21.448-29.232-19.027z"/>
    <path id="path3844" fill-opacity=".15686" d="m15.186 54.673l16.375-10.25 29.313 20.562 17.687-9.75 5.375 3.688-27.687 21.75-41.063-26z"/>
    <path id="path3846" fill-opacity=".15686" d="m31.936 24.36l18.813-10.875 22.25 14-11.625 16.063-29.438-19.188z"/>
    <path id="path3951" d="m68.672 89.415l-3.535 7.38 0.221 2.188 0.265-0.243 1.127-1.149 2.519-7.933 1.26 0.641v-0.067l-0.376-0.884-0.928-0.464 0.619-1.392-0.884-0.398-0.089 1.614-0.685-0.31-0.574 0.486 1.06 0.531z" fill="url(#linearGradient3953)"/>
    <path id="path3959" d="m63.701 90.21l-1.149-0.994-0.663 0.795 1.591 0.597-0.619 0.574 0.398 0.619 0.795-0.906 5.989 5.326 2.209 0.618-0.066-0.287-0.906-1.569-6.828-4.53 0.994-1.083-1.016 0.089-0.729 0.751z" fill="url(#linearGradient3961)"/>
    <path id="path3963" fill="url(#linearGradient3969)" d="m82.23 99.894l-0.691 0.136 4.76 3.83 0.154 2.18 1.397 1.27 0.108 1.62 1.405 0.83 0.264 1.27 1.305 1.07 0.17 0.91 1.346 1.03-0.067 1.25 0.735-0.16 0.013-1.52-1.134-0.87-0.125-0.99-1.509-0.97-0.256-1.42-1.364-0.72-0.13-1.63-1.517-1.25-0.154-2.17-4.71-3.696z"/>
    <path id="path3971" fill="url(#linearGradient3973)" d="m89.81 97.242l-0.692 0.141 4.76 3.827 0.154 2.18 1.397 1.27 0.109 1.62 1.404 0.83 0.265 1.27 1.305 1.07 0.169 0.91 1.349 1.03-0.069 1.25 0.739-0.16 0.01-1.53-1.136-0.86-0.125-0.99-1.509-0.97-0.255-1.42-1.365-0.72-0.13-1.63-1.517-1.25-0.154-2.17-4.709-3.698z"/>
  </g>
  <g id="layer1">
    <path id="path2308" fill-rule="evenodd" d="m50.686 13.298l-19.031 11.094-0.469 19.906-16.344 10.406 0.032 25.156-8.1879 2.813 0.0625 6.125 55.656 37.312 64.655-22.78 0.03-6.251-10.31-7.219c-0.06-0.351-0.24-0.691-0.47-0.906l-4.78-3.687v-5.407l-0.03-17.75-18.251-12.937-0.782-15.906-19.156-12.969v-0.219c3.538 0.953 7.021 0.837 10.563 0.469-0.996-0.677-2.305-0.847-3.594-2.063 2.339-0.113 3.986-1.834 5.437-2.687-4.133 0.592-8.213 1.78-12.406 0v-1.125c-0.25-0.5-0.271-0.375-0.687 0.125l-0.032 5.031-9.656-6.531h-12.25zm1.031 0.375l11 0.094 3.532 2.375-10.469 0.093-4.063-2.562zm-1.062 0.156l4.094 2.594-17.625 11.125-4.625-3.031 18.156-10.688zm5.281 2.5h10.594l4.437 2.969-10.687-0.25-4.344-2.719zm17.375 0.031c2.791 0.891 7.589 1.352 10.938 0.063-0.548 0.977-3.544 1.665-4.688 1.656 0.463 0.728 1.84 1.725 3.156 2.156-2.792 0.679-6.394 0.069-9.406-0.531v-3.344zm-18.281 0.219l4.125 2.594-16.469 12-5.406-3.531 17.75-11.063zm5.437 2.625l10.75 0.281 1.375 0.938v1.969l-7.656-0.375-4.469-2.813zm-1.062 0.125l4.656 2.938-15.5 12.718-5.719-3.718 16.563-11.938zm13.906 1.563l2.438 1.656-2.438-0.125v-1.531zm-8.219 1.218l7.5 0.438-0.031 3-2.656-0.406-4.813-3.032zm-0.781 0.313l4.656 2.937-13.531 14.125-6.719-4.406 15.594-12.656zm9 0.187l2.75 0.157 6.281 4.218-9.031-1.343v-3.032zm-41.031 2.469l7.594 5.031v1.625l-3.375-2.25v1.625l-4.282-2.843 0.063-3.188zm37.812 0.188l2.469 0.375v1.187l-2.469-1.562zm-0.875 0.25l3.344 2.093-11.312 15.657-5.688-3.719 13.656-14.031zm4.094 0.25l9.344 1.406 6.656 4.5-15.937-4.344-0.063-0.031v-1.531zm-0.312 2l0.125 0.031 6.656 9.5-8.313 2.844-3.562-5.125 5.094-7.25zm0.531 0.156l10 2.844 3.344 4.125-6.938 2.375-6.406-9.344zm-41.313 0.625l3.532 2.312v3l-3.594-2.375 0.062-2.937zm7.844 1.687l12.75 8.469v1.594l-4.5-3v1.562l-5.312-3.468v-1.594l-2.969-1.969 0.031-1.594zm-3.031 0.094l5.469 3.656 0.093 14.625-5.75-3.906 0.188-14.375zm46.969 0.563l7.968 2.281-4.937 1.687-3.031-3.968zm-48.063 0.093l0.563 0.375-0.032 2.969-0.562-0.375 0.031-2.969zm-3.781 0.719l3.594 2.375v0.031l0.093 0.032 0.625 0.406-0.031 2.844-4.312-2.813 0.031-2.875zm5.594 0.469v12.062l3.875 2.782-0.125-12.313-3.75-2.531zm0.312 0.562l3.125 2.188 0.125 11.562-3.25-2.406v-11.344zm53.938 1.125c0.064 1.135 0.104 2.299 0.125 3.375l-3.688 1.219v-2.062l-0.937 0.312v-1.312l4.5-1.532zm-59.907 0.969l3.407 2.219v2.437l-3.438-2.25 0.031-2.406zm35.625 0.406l3.594 4.969-9.312 3.156 5.718-8.125zm19.594 0.219l0.031 1.313-5.406 1.875-0.031 1.937-5.563 1.844 0.032-3.219 10.937-3.75zm-44.312 0.219l2.218 1.469v2.968l-2.218-1.468v-2.969zm44.875 1.437v14.625l-5.594 1.688 0.219-14.281 5.375-2.032zm-52.188 0.032l0.75 0.5-0.031 2.437-0.75-0.5 0.031-2.437zm9.719 0.125l2.906 1.906-0.031 2.937-2.906-1.906 0.031-2.937zm46.75 0.156l0.156 3.187-3.875 1.25v-3.218c1.237-0.413 2.481-0.82 3.719-1.219zm-60.094 0.062l4.344 2.844v2.344l-4.375-2.844 0.031-2.344zm16.781 0.657l5.469 3.656 0.094 14.625-5.75-3.906 0.187-14.375zm4.157 0.687l7.906 5.25-0.031 3.094-6.063-4v-1.563l-1.844-1.218 0.032-1.563zm33.937 0l-3.75 1.281v11.875l3.875-1.156-0.125-12zm-43.937 0.063l2.218 1.468v0.032l3.063 2-0.031 2.75-5.25-3.438v-2.812zm33.187 0.406v3.187l-3.469 1.157v-2.219l-6.5 2.25-0.031 2.125-0.656 0.219 0.031-3.094 10.625-3.625zm10.313 0.187l0.281 11.032-3.25 1-0.063-11.219 3.032-0.813zm-36.938 0.5v12.063l3.875 2.781-0.125-12.312-3.75-2.532zm-17.531 0.063l3.469 2.281v3.094l-3.532-2.313 0.063-3.062zm17.844 0.5l3.125 2.187 0.125 11.563-3.25-2.406v-11.344zm32.031 0.25v3.187l-9.188 2.969v-3.125l9.188-3.031zm10.406 0l0.125 2.594-4 1.281v-2.594l3.875-1.281zm-49.312 1.156l2.312 1.531h-0.094v2.344l-2.218-1.437v-2.438zm29.156 0.188v14.625l-5.594 1.687 0.188-14.281 5.406-2.031zm-36.469 0.312l0.719 0.469-0.031 2.062 6.625 4.594v-2.312l2.218 1.437v3.125l-9.562-6.281 0.031-3.094zm29.688 0.531v3.032l0.093 0.031-4.031 1.312 0.031-3.031 3.907-1.344zm-33.407 0.375l7.594 5.032v1.406l-7.625-5.313 0.031-1.125zm22.844 0.125l2.188 1.438v2.969l-2.188-1.438v-2.969zm-9.406 0.063l2.844 1.875-0.032 2.375-2.843-1.844 0.031-2.406zm47.031 0.031l0.156 2.75-4.156 1.375v-2.812l4-1.313zm-21.219 0.281l-3.75 1.282v11.875l3.875-1.157-0.125-12zm10.688 0.313l-0.031 2.625-5.532 1.781 0.032-2.625 5.531-1.781zm-11.125 0.344l0.25 11.031-3.25 1.031-0.031-11.219 3.031-0.843zm-27.781 0.156l2.218 1.437v0.063h0.094l2.906 1.906v2.313l-5.218-3.375v-2.344zm-11.5 0.281l3.062 2.125-14.344 10.281-4.062-2.625 15.344-9.781zm25.687 0.094l3.688 2.437-0.032 2.938-3.687-2.438 0.031-2.937zm9 0.906v3.094l-4.781 1.562 0.031-3.062 4.75-1.594zm10 0.063v2.625l-3.469 1.125v-2.625l3.469-1.125zm16.406 0.531l0.094 2.281-4.25 1.406v-2.343l4.156-1.344zm-37.781 0.187l6 3.969-0.031 2.625-5.969-3.906v-2.688zm27.063 0.282l-0.032 2.843-9.125 2.969v-2.875l9.157-2.937zm-47.063 0.25l4.469 3.125-14.188 10.093-4.718-3.031 14.437-10.187zm4.938 1.25l13 8.593v1.907l-13.032-9.094 0.032-1.406zm5.656 0.312l2.812 1.844-0.031 2.125 6.625 4.594v-2.375l2.25 1.468v3.188l-11.687-7.719 0.031-3.125zm47.312 0.188l0.125 2.937-6.625 2.156-3.375 0.375 0.032-0.687 5.562-1.781v-1.594l4.281-1.406zm-26.531 0.218l-0.031 2.657-0.594 0.187v-2.656l0.625-0.188zm-0.812 0.25l0.031 2.657-4.031 1.312 0.031-2.656 3.969-1.313zm-10.563 0.219l2.188 1.438v2.406l-2.188-1.438v-2.406zm27.031 0.344l-0.031 2.344-5.594 1.812 0.032-2.344 5.593-1.812zm11.438 0.406l1.687 1.156-1.656-0.187-0.031-0.969zm-53.75 0.094l4.187 2.906-14 10-4.468-2.875 14.281-10.031zm17.656 0.719l3.594 2.375-0.031 2.375-3.594-2.375 0.031-2.375zm36.156 0.437l2 0.188 7.158 4.937-21.97-0.812-1.125-0.782 14-1.593-0.063-1.938zm-17.281 0.219v2.344l-3.344 1.093v-2.343l3.344-1.094zm-9.906 0.094l-0.063 5.562-4.812 1.563 0.125-5.563 4.75-1.562zm26.687 0.156l0.063 1.187-5.75 0.657 5.687-1.844zm-38.031 0.219l5.938 3.906-0.032 2.281-5.906-3.844v-2.343zm27 0.187v1.563l0.875-0.282v0.657l-4.312 0.468-6.844 3.907v-1.469l1.187-0.375v-1.5l9.094-2.969zm-37.875 1.063l4.531 3.156-13.812 9.844-4.781-3.063 14.062-9.937zm-28.375 1.718l5.063 3.282v2.875l-5.032-3.282h-0.031v-2.875zm62.781 0.157l1.282 0.875-29.032 20.5-5.312-3.407 13.5-9.5 2.156 1.5 17.406-9.968zm2.594 0.812l21.784 0.656 6.56 4.532-25-2.844-3.344-2.344zm-1.094 0.219l3.532 2.406-27.375 21.438-5.282-3.407 29.125-20.437zm-22.593 0.062l3.468 2.282-0.031 3.156-3.469-2.281 0.032-3.157zm-8.532 0.344l4.657 3.25-13.594 9.75-4.969-3.219 13.906-9.781zm4.219 0.281l7.75 5.125-0.031 2.157-1.594-1.094-4.906-3.438-0.031-0.031-0.188-0.156-0.031 0.031-1-0.719 0.031-1.875zm18.406 0.25l0.032 1.469-10.063 3.25 0.031-2.937 4.75-1.563v1.469l5.25-1.688zm-55.781 0.969l9.75 6.344v3.312l-0.312-0.218v-2.469l-6.5-4.313-0.032 2.563-2.906-1.906v-3.313zm5.25 0.313l9.688 6.25v2.906l-9.719-6.313 0.031-2.843zm63.25 0.312l10.563 1.313 4.281 5.687-8.094 2.781-6.75-9.781zm-0.219 0.156l6.813 9.657-7.844 2.718-5.219-7.375-0.187 0.188 5.25 7.219-9.281 3.187-3.407-4.562 7.625-6.032 6.25-5zm-13.093 0.094l-5.188 2.969v-1.281l5.188-1.688zm-17.157 1.031l4.938 3.438-13.406 9.594-5.219-3.375 13.687-9.657zm41.438 0.063l9.25 1.156 1.66 2.063-6.879 2.375-4.031-5.594zm-29.656 0.656l0.031 1.313-4.125 2.343 0.031-2.343 4.063-1.313zm39.246 0.531l5.35 0.657-3.85 1.312-1.5-1.969zm-85.59 0.344l5.469 3.656 0.093 18.125-3.812-2.593 0.031-1.032 2.813 2.032-0.125-15.75-3.75-2.532v15.5l0.875 0.625v1.063l-1.782-1.219 0.188-17.875zm-3.469 0.063l0.188 0.125v2.906l-0.188-0.125v-2.906zm0.375 0.25l2.531 1.656v2.906l-2.562-1.687 0.031-2.875zm94.814 0.125l0.03 3.781-11.5 3.906 0.031-3.656 11.439-4.031zm-90.689 2.031l3.125 2.187 0.125 15-3.25-2.406v-14.781zm5.438 0.5l10.812 7.031v0.719l-5.562-3.688-0.032 2.657-5.25-3.438 0.032-3.281zm5.187 0.219l11.063 7.156v2.937l-11.094-7.218 0.031-2.875zm-15.125 0.031l2.906 1.906-0.031 3.406-2.906-1.875 0.031-3.437zm95.219 1.187l0.03 3.157-5.72 1.937 0.03-3.187 5.66-1.907zm-11.656 0.125v3.625l-10.907 3.719 0.032-3.531 2.718-0.938 0.032-0.031 8.125-2.844zm-74.125 1.688l5.562 3.625h-0.062v2.844l-5.532-3.563 0.032-2.906zm79.941 0.156v3.188l-11.41 3.875 0.031-3.188 11.379-3.875zm-89.41 0.531l0.219 0.157v3.031l-0.094-0.063-0.125 0.032v-3.157zm0.406 0.25l2.5 1.625-0.031 3.032-2.5-1.625 0.031-3.032zm94.874 0.625l0.03 3.094-11.623 3.938 0.032-3.125 11.561-3.907zm-79.53 0.094l5.469 3.656 0.093 18.125-5.75-3.906 0.188-17.875zm56.781 0.531v3.532l-5.844 1.968h-0.156v0.063l-5.531 1.875 0.031-3.375 11.5-4.063zm-18.312 0.063l3.437 4.469-9.562 3.312-1.407-1.781 7.532-6zm-44.782 0.906l0.344 0.219v3.406l-0.344-0.219v-3.406zm0.532 0.344l5.218 3.406-0.031 3.375-5.219-3.406 0.032-3.375zm6.5 0.062v15.5l3.875 2.782-0.125-15.75-3.75-2.532zm-1.313 0.125l0.031 0.032v2.906l-0.062-0.031 0.031-2.907zm5.813 0.219l10.125 6.625v0.594l-3.125-2.063v2.719l-6.25-4.094v-2.562l-0.782-0.5 0.032-0.719zm-20.969 0.063l2.875 1.875v3.281l-2.875-1.844v-3.312zm77.844 0.125v3.187l-11.157 3.781 0.032-3.187 11.125-3.781zm-61.063 0.031l3.125 2.187 0.125 15-3.25-2.406v-14.781zm9.625 0.125l10.125 6.531v3l-10.156-6.594 0.031-2.937zm68.904 0.594l0.03 3.468-5.78 1.969 0.03-3.5 5.72-1.937zm-11.779 0.687v3.125l-10.844 3.656 0.032-3.125 10.812-3.656zm-22.687 0.781v3.375l-10.907 3.688 0.032-3.25 8.125-2.844 2.75-0.969zm-51.407 0.5l5.532 3.625v3.032l-5.532-3.594v-3.063zm79.973 0.032v3.468l-1.54 0.532-1.9-1.469c-0.51 0.209-1.721 0.352-0.97 1.969l0.41 0.312-3.66 1.25v-1l-3.688 1.25 0.032-2.469 11.316-3.843zm-89.41 0.687l0.219 0.125v3.063l-0.219-0.157v-3.031zm0.406 0.25l2.469 1.594-0.031 2.562 2.25 1.532v0.406l-4.719-3.063 0.031-3.031zm66.125 0.156v3.157l-11.281 3.843 0.031-3.187 11.25-3.813zm-44.812 0.032c1.495 0.985 2.999 1.959 4.5 2.937v2.875l-4.532-2.906 0.032-2.906zm24.781 0.437l1.375 1.688-6.188 2.125 4.813-3.813zm48.84 0.125l0.03 3.188-4.43 1.5-2.91-2.25 7.31-2.438zm-22.809 0.719v3.125l-11.531 3.906 0.031-3.125 11.5-3.906zm13.559 0.531l14.5 11.469c0.29 0.494 0.54 1.321-0.43 0.937l-0.57-0.406 0.75-0.531-0.47-0.219-0.59 0.5-13.78-10.281c-0.79-0.861-0.04-1.447 0.59-1.469zm-57.59 0.125l5.469 3.656 0.093 18.125-5.75-3.906 0.188-17.875zm-19.063 0.219l0.344 0.219v3.312l-0.375-0.25 0.031-3.281zm40.344 0.062v3.25l-8.812 2.969-0.032-3.094 8.844-3.125zm-39.812 0.282l5.156 3.375v3.25l-5.188-3.344 0.032-3.281zm21.312 0.156l8.688 5.687 0.031 3.282-5.531-3.625v-2.594l-3.219-2.125 0.031-0.625zm46.625 0.125v2.469l-11.219 3.812 0.032-2.5 11.187-3.781zm-77.906 0.062l9.875 6.438h-0.094v2.656l-9.781-6.5v-2.594zm36.719 0.063l3.218 2.094 0.032 3.031-3.282-2.125 0.032-3zm-10.313 0.156c0.51 0.333 1.024 0.665 1.531 1v2.844l-1.562-1 0.031-2.844zm-4.719 0.125c2.064 1.332 4.128 2.664 6.188 4l0.031 3.438-6.219-4.063v-3.375zm7.532 0.656v15.5l3.875 2.782-0.125-15.75-3.75-2.532zm25.875 0v3.188l-10.032 3.406 0.032-3.219 10-3.375zm30.526 0l2.91 2.219-4.811 1.625 0.031-3.219 1.87-0.625zm9.75 0.125v3.063l-1.46 0.5-2.75-2.156 4.21-1.407zm-96.026 0.219v1.688l41.031 27.373 24.562-8.72 4.375 3.47v0.06l-3.718 1.38 5.531 5.12-24.375 8.82-54.531-36.722 7.125-2.469zm30.187 0.219l3.125 2.187 0.125 15-3.25-2.406v-14.781zm54.031 0.125v3.219l-1.843 0.625 0.031-3.219 1.812-0.625zm-2.468 0.344v13.093l-0.594 0.25-0.188-12.593-9.656 3.25 0.063 12.812-0.907 0.313v-12.782l-9.75 3.469v12.721l-0.75 0.28v-13.376l21.782-7.437zm-20.25 0.375v3.125l-7.375 2.5-0.125-0.063v0.094l-3.407 1.156 0.032-3.125 10.875-3.687zm-55.594 0.375l4.156 2.812v-2.75l5.563 3.625v3l-9.719-6.312v-0.375zm74.75 0.5v0.718l-8.781 14.032v-1.282l8.375-13.343 0.406-0.125zm8.72 0.062l0.69 0.531-0.07 2.375-7.621 2.563v-3.094l7.001-2.375zm-9.345 0.156l-8.188 12.938v-1.438l7-11.093 1.188-0.407zm-12.844 0.282v2.468l-7.781 2.657v1l-3.5 1.187 0.031-3.5 11.25-3.812zm11.438 0.187l-6.782 10.75v-1.437l5.594-8.907 1.188-0.406zm-56.282 0.031c1.487 0.975 3.031 1.988 4.532 2.969v3l-4.532-2.937v-3.032zm68.223 0.25l8.65 6.594 0.06 5.031-8.9-5.906 0.19-5.719zm-9.91 0.032l0.031 1.343-8.094 12.782-0.718 0.25v-0.313l8.781-14.062zm-88.063 0.093l54.563 36.81 0.094 5-54.625-36.778-0.0316-5.032zm103.43 0.032l0.04 1.406-1.29-0.969 1.25-0.437zm-50.464 0.031v3.187l-3.937 1.344v-3.187l3.937-1.344zm31.625 0.031l-5.344 8.5-0.031-1.406 4.25-6.719 1.125-0.375zm-1.375 0.469l-4 6.312v-1.562l2.719-4.313 1.281-0.437zm-40.687 0.531l2.062 1.344v2.906l-2.062-1.344v-2.906zm39.156 0l-2.469 3.906-0.031-1.593 1.219-1.875 1.281-0.438zm6.406 0.438v1.437l-6.719 10.563-1.093 0.406 7.812-12.406zm-7.969 0.093l-0.937 1.469v-1.156l0.937-0.313zm-22.281 0.157v3.125l-2.656 0.906-0.094-0.094-0.125 0.156-5.906 2-0.031-3.093 8.812-3zm39.559 0.281l-0.06 3.25-5.593 1.875 0.032-3.219 5.621-1.906zm-79.371 0.062l10.812 7.032v2.906l-10.844-7.219 0.032-2.719zm26.75 0.438l3.281 2.156 0.031 2.875-3.344-2.156 0.032-2.875zm32.656 0v1.031l-0.813-0.75 0.813-0.281zm-42.938 0.156c0.484 0.317 1.024 0.672 1.469 0.969l-0.031 2.969-1.5-0.969 0.062-2.969zm-4.75 0.219l6.188 4v3.25l-6.219-4 0.031-3.25zm46.625 0l1.063 0.969 0.031 1.593-2.312-2.125 1.218-0.437zm11.719 0.312l0.031 1.5-5.281 8.25-1.219 0.438 6.469-10.188zm-24.937 0.032v3.5l-0.094 0.031-0.281-0.906-0.875-0.407 0.656-1.375-0.813-0.375 1.407-0.468zm11.75 0.187l2.562 2.344v1.562l-3.781-3.468 1.219-0.438zm24.526 0.094l-0.09 2.719 4.06 2.5 2.53-1.813-1.9 0.281 0.25-1.562-1.47 0.437-0.09-2.375-1.07 1.688-0.78-1.563-0.59 1.25-0.85-1.562zm-38.058 0.312l-0.062 1.375-0.656-0.312-0.594 0.594 1.062 0.531-0.812 1.687-1.469 0.5-1.75-1.156 1-1.125-1.187 0.031-0.657 0.75-0.906-0.812 6.031-2.063zm0.313 0.032l0.594 0.375-0.5 0.906-0.219-0.094 0.125-1.187zm11.75 0.093l4.031 3.688 0.031 1.531-5.25-4.812 1.188-0.407zm18.156 0.032v3.218l-1.844 0.625 0.032-3.218 1.812-0.625zm-49.062 0.25l5.562 3.625 0.031 3.406-5.593-3.656v-3.375zm29.468 0.218l5.5 5v1.563l-6.687-6.125 1.187-0.438zm-48.812 0.157l6.531 4.375v-2.594l4.563 2.969v3l-11.094-7.219v-0.531zm47.406 0.375l6.906 6.312v1.438l-8-7.375 1.094-0.375zm17.531 0v1.5l-3.781 5.968-1.25 0.438 5.031-7.906zm-27.468 0.156l2.031 0.875 0.312 0.75-1.718-0.875-0.063-0.031-0.937-0.469 0.375-0.25zm8.562 0.312l8.313 7.563v1.375l-8.907-8.25v-0.469l0.594-0.219zm28.124 0.032v0.468l0.16 0.094v1.781l-7.753 2.719v-2.5l7.593-2.562zm-30.53 0.187v3.25l-4.531 1.531-1.438-0.968 0.594-2 1.594-0.532 0.125 0.063-0.032-0.094 3.688-1.25zm-11.625 0.344l0.75 0.719-0.188 0.187-1.062-0.437 0.5-0.469zm2.625 0l-1.313 1.406-0.062 0.063-0.656 0.75-0.157-0.438 1.375-1.687 0.813-0.094zm-3.094 0.094l-0.437 0.531 1.562 0.562-0.469 0.563 0.407 0.719 0.812-0.875 1.094 0.968-4.563 1.563 0.032-3.5 1.562-0.531zm6.531 0.031l0.219 0.062 0.188 0.063-0.969 3.125-0.406-0.281 0.375-1.063-0.063-0.031-0.375 1.062-0.25-0.156 1.281-2.781zm36.433 0.031l1.6 1.031-1.63 0.563 0.03-1.594zm-35.87 0.156l1 0.532-1.313 0.437 0.313-0.969zm6.812 0.125l8.907 8.219v0.188l-0.844 0.281-8.031-7.406-0.032-1.282zm-15.656 0.25v3.5l-3.875 1.313-0.031-3.5 3.906-1.313zm35.188 0.094v1.531l-2.282 3.563-1.281 0.469 3.563-5.563zm19.026 0.031l1.1 0.844c0.45-0.097 0.71-0.285 0.87-0.5l8.94 6.313-20.75 7.748-6.03-5.53-3.656 1.34-4.344-3.433 16.69-5.938 7.18 4.688v-5.532zm-50.214 0.344l6.813 4.531 0.812 1.25 0.031 0.094-6.218-4.437-0.063 0.062 6.156 4.531-1.718-0.437-6.063-5.281 0.125-0.157 0.125-0.156zm-14.437 0.75l2.062 1.344v2.969l-2.062-1.344v-2.969zm17.656 0.031l-0.406 0.844-0.719-0.469 1.125-0.375zm8.469 0.094l7.843 7.188-1.156 0.406-6.687-6.094v-1.5zm19.5 0.563l0.031 1.531-0.813 1.219-1.25 0.437 2.032-3.187zm-30.313 0.125v3.187l-4.781 1.656h-0.094v0.032l-3.875 1.312v-3.219l8.75-2.968zm0.188 0.156l1.218 1.062v0.032l-0.906 1.812-0.344 0.125 0.032-3.031zm8.781 0.219l-0.031 3.093-2.094 0.719-0.719-1.375-0.625-0.406v-0.844l3.469-1.187zm-37.781 0.125l10.187 6.656v3.002l-10.219-6.783 0.032-2.875zm15.75 0.156l3.375 2.187 0.031 3-3.438-2.25 0.032-2.937zm-10.313 0.094l1.469 0.968-0.031 2.375 6.625 4.405v-2.467l2.062 1.344v2.973l-10.156-6.598 0.031-3zm34.188 0.375l6.406 5.875-1.125 0.406-5.281-4.844v-1.437zm-9.25 0.25l0.281 0.281-1.781 4.781-0.032-1.781 1.532-3.281zm3.75 0.25v0.656l-0.657-0.438 0.657-0.218zm-3.344 0.093l0.375 0.375-1.031 3.25-1.094 1.25 1.75-4.875zm28.375 0v0.625l-0.531 0.188 0.531-0.813zm-27.813 0.532l2.282 2.031 0.5 0.094v0.312l-4.594 1.531 0.812-0.75 1-3.218zm-17.843 0.218l5.656 3.688 0.031 3.252-5.687-3.69v-3.25zm26.125 0.438l5 4.562-1.063 0.41-3.906-3.566-0.031-1.406zm-10.407 0.375l-0.656 1.344 0.188 1.906-4.657 1.567 0.032-3.098 5.093-1.719zm8.532 0.375v3.25l-8.782 2.972 0.032-3.128 0.218-0.188 5.844-2 0.875 0.188-0.219-0.407 2.032-0.687zm-3.469 0.75l0.437 0.094-0.437 0.156v-0.25zm5.375 0.219l3.625 3.313-1.219 0.44-2.406-2.191v-1.562zm14.406 0.312l4.344 3.441-9.875 3.62v-0.09l-4.344-3.47 9.875-3.501zm-30.125 0.125v3.096l-3.844 1.31-0.031-3.093 3.875-1.313zm66.094 0.063l0.06 5.623-21.65 7.66v-5.6l21.59-7.683zm-50.375 1.406l2.125 1.937-1.25 0.47-0.844-0.78-0.031-1.627zm-10.906 0.219l0.031 0.218 0.031-0.031v3.001l-8.719 2.94v-3.22l8.657-2.908zm9 0.343v2.815l-3.469 1.22 0.031-2.88 3.438-1.155zm-27.375 0.157l8.843 5.778 0.032 3.16-8.907-5.91 0.032-3.028zm5.375 0.25l3.437 2.218 0.031 3-3.5-2.28 0.032-2.938zm46.218 0.031l0.125 1.907-2.968 1.06-0.188-1.87 3.031-1.097zm0.407 0l5.566 5.217 0.06 4.47-1-0.47-0.1-1.22-1.56-0.9-0.03-1.47-1.37-0.75 0.03-1.85-1.503-0.93-0.093-2.097zm-28.25 0.777v2.88l-10.032 3.56 0.032-3.06 10-3.38zm5.562 0.16l0.594 0.53-0.594 0.22v-0.75zm19.031 0.25l0.219 1.84-10.094 3.6-0.062-0.06-0.188-1.69 10.125-3.69zm3.407 1.09l1.281 0.85-2.906 1.03-1.219-0.88 2.844-1zm-3.032 1.07l1.188 0.87-9.969 3.53v-0.09l-1.125-0.81 9.906-3.5zm4.528 0.06v1.37l-2.684 0.97-0.219-1.31 2.903-1.03zm-39.684 0.81v3.06l-3.812 1.35-0.032-3.1 3.844-1.31zm36.594 0.28l0.187 1.32-10.125 3.59-0.218-1.34 10.156-3.57zm-12.125 0.44l0.187 1.69 0.063 0.06-1.844 0.66-1.469-1.28 3.063-1.13zm15.495 0.09l0.94 0.5-2.998 1.07-0.843-0.53 2.901-1.04zm1.07 0.88l0.03 1.06-2.595 0.91-0.125-0.97-0.063-0.03 2.753-0.97zm-4.19 0.25l0.844 0.53-9.844 3.53-0.844-0.59 9.844-3.47zm-11.781 0.75l1.156 0.87v0.04l-2.031 0.71-1.063-0.93 1.938-0.69zm13.031 0.03l0.062 0.03 0.094 1-10.094 3.6-0.156-1.1 10.094-3.53zm3.19 0.34l1.03 0.66-2.783 1-0.968-0.69 2.721-0.97zm-15.034 0.85l0.188 1.34v0.03l-0.844 0.28-1.156-1.03 1.812-0.62zm16.314 0.15l-0.03 0.88-2.66 0.91-0.06-0.82 2.75-0.97zm-4.22 0.04l1 0.68-9.906 3.53v-0.03l-1-0.68 9.906-3.5zm1.34 0.96l0.07 0.82-10.223 3.5-0.062-0.75 10.215-3.57zm3.1 0.13l1.03 0.53-2.97 1.03-0.94-0.53v-0.06l2.88-0.97zm-16.003 0.31l0.875 0.56-1.062 0.38-0.719-0.63 0.906-0.31zm17.313 0.5v1l-2.56 0.88 0.03-0.72-0.31-0.16 2.84-1zm-4.31 0.22v0.06l0.93 0.53-9.964 3.47-1.094-0.65 10.128-3.41zm-11.971 0.09l0.093 1.1v0.03l-0.937 0.31 0.25-0.75-0.375-0.34 0.969-0.35zm13.311 0.72l0.22 0.13-0.03 0.78-10.158 3.5 0.032-0.91-0.032-0.03 9.968-3.47zm-14.749 0.28v5.54l-24.125 8.71-0.125-5.43 24.25-8.82zm1.875 0.35l1.063 0.72-2.313 0.81v-1.09l1.25-0.44zm1.063 1.03l0.062 0.75-2.344 0.78-0.031-0.72 2.313-0.81zm0.156 1.03l1.125 0.59-3.563 1.25v-1.03l2.438-0.81zm1.5 0.84l-0.031 0.94-3.813 1.31-0.062-0.87 3.906-1.38z"/>
  </g>
  <metadata>
    <rdf:RDF>
      <cc:Work>
        <dc:format>image/svg+xml</dc:format>
        <dc:type rdf:resource="http://purl.org/dc/dcmitype/StillImage"/>
        <cc:license rdf:resource="http://creativecommons.org/licenses/publicdomain/"/>
        <dc:publisher>
          <cc:Agent rdf:about="http://openclipart.org/">
            <dc:title>Openclipart</dc:title>
          </cc:Agent>
        </dc:publisher>
        <dc:title>RPG map symbols: Townhall</dc:title>
        <dc:date>2008-01-23T11:36:47</dc:date>
        <dc:description>Part of the fantasy RPG map elements collection (houses and various buildings): a townhall</dc:description>
        <dc:source>http://openclipart.org/detail/11536/rpg-map-symbols:-townhall-by-nicubunu</dc:source>
        <dc:creator>
          <cc:Agent>
            <dc:title>nicubunu</dc:title>
          </cc:Agent>
        </dc:creator>
        <dc:subject>
          <rdf:Bag>
            <rdf:li>building</rdf:li>
            <rdf:li>cartography</rdf:li>
            <rdf:li>clip art</rdf:li>
            <rdf:li>clipart</rdf:li>
            <rdf:li>fantasy</rdf:li>
            <rdf:li>geography</rdf:li>
            <rdf:li>image</rdf:li>
            <rdf:li>map</rdf:li>
            <rdf:li>media</rdf:li>
            <rdf:li>png</rdf:li>
            <rdf:li>public domain</rdf:li>
            <rdf:li>svg</rdf:li>
            <rdf:li>townhall</rdf:li>
          </rdf:Bag>
        </dc:subject>
      </cc:Work>
      <cc:License rdf:about="http://creativecommons.org/licenses/publicdomain/">
        <cc:permits rdf:resource="http://creativecommons.org/ns#Reproduction"/>
        <cc:permits rdf:resource="http://creativecommons.org/ns#Distribution"/>
        <cc:permits rdf:resource="http://creativecommons.org/ns#DerivativeWorks"/>
      </cc:License>
    </rdf:RDF>
  </metadata>
</svg>
