<?xml version="1.0"?>
<svg xmlns:rdf="http://www.w3.org/1999/02/22-rdf-syntax-ns#" xmlns="http://www.w3.org/2000/svg" xmlns:cc="http://creativecommons.org/ns#" xmlns:xlink="http://www.w3.org/1999/xlink" xmlns:dc="http://purl.org/dc/elements/1.1/" xmlns:svg="http://www.w3.org/2000/svg" id="svg2" viewBox="0 0 128 128" version="1.0">
  <defs id="defs4">
    <linearGradient id="linearGradient2338">
      <stop id="stop2340" stop-color="#b1b1b1" offset="0"/>
      <stop id="stop2342" stop-color="#e4e4e4" offset="1"/>
    </linearGradient>
    <linearGradient id="linearGradient2320">
      <stop id="stop2322" stop-color="#6a3c1d" offset="0"/>
      <stop id="stop2324" stop-color="#8f5127" offset="1"/>
    </linearGradient>
    <linearGradient id="linearGradient3415">
      <stop id="stop3417" stop-color="#1a1a1a" offset="0"/>
      <stop id="stop3419" stop-color="#2b2b2b" offset="1"/>
    </linearGradient>
    <linearGradient id="linearGradient3332">
      <stop id="stop3334" stop-color="#bb8f56" offset="0"/>
      <stop id="stop3336" stop-color="#d1af63" offset="1"/>
    </linearGradient>
    <linearGradient id="linearGradient2769" x1="10.855" xlink:href="#linearGradient2338" gradientUnits="userSpaceOnUse" y1="73.602" gradientTransform="translate(1.2108 .17297)" x2="11.436" y2="76.293"/>
    <linearGradient id="linearGradient2773" x1="10.61" xlink:href="#linearGradient2320" gradientUnits="userSpaceOnUse" y1="67.579" gradientTransform="translate(1.2108 .17297)" x2="15.518" y2="76.721"/>
    <linearGradient id="linearGradient2777" x1="6.4519" xlink:href="#linearGradient2320" gradientUnits="userSpaceOnUse" y1="57.182" gradientTransform="translate(1.2108 .17297)" x2="7.0328" y2="57.213"/>
    <linearGradient id="linearGradient2781" x1="9.6319" xlink:href="#linearGradient2320" gradientUnits="userSpaceOnUse" y1="60.301" gradientTransform="translate(1.2108 .17297)" x2="9.8766" y2="60.821"/>
    <linearGradient id="linearGradient2785" x1="7.3692" xlink:href="#linearGradient2320" gradientUnits="userSpaceOnUse" y1="58.482" gradientTransform="translate(1.2108 .17297)" x2="8.1948" y2="58.298"/>
    <linearGradient id="linearGradient2789" x1="12.476" xlink:href="#linearGradient2320" gradientUnits="userSpaceOnUse" y1="67.518" gradientTransform="translate(1.2108 .17297)" x2="12.873" y2="66.967"/>
    <linearGradient id="linearGradient2793" x1="14.219" xlink:href="#linearGradient2320" gradientUnits="userSpaceOnUse" y1="60.607" gradientTransform="translate(1.2108 .17297)" x2="20.609" y2="73.388"/>
    <linearGradient id="linearGradient2797" x1="10.396" xlink:href="#linearGradient2320" gradientUnits="userSpaceOnUse" y1="63.787" gradientTransform="translate(1.2108 .17297)" x2="11.528" y2="65.316"/>
    <linearGradient id="linearGradient2801" x1="23.453" xlink:href="#linearGradient2320" gradientUnits="userSpaceOnUse" y1="71.145" gradientTransform="translate(1.2108 .17297)" x2="24.493" y2="71.145"/>
    <linearGradient id="linearGradient2807" x1="24.89" xlink:href="#linearGradient2320" gradientUnits="userSpaceOnUse" y1="71.141" gradientTransform="translate(1.2108 .17297)" x2="25.838" y2="71.141"/>
    <linearGradient id="linearGradient2811" x1="31.403" xlink:href="#linearGradient2320" gradientUnits="userSpaceOnUse" y1="79.687" gradientTransform="translate(1.2108 .17297)" x2="43.481" y2="68.557"/>
    <linearGradient id="linearGradient2815" x1="32.137" xlink:href="#linearGradient2320" gradientUnits="userSpaceOnUse" y1="72.624" gradientTransform="translate(1.2108 .17297)" x2="32.29" y2="72.96"/>
    <linearGradient id="linearGradient2821" x1="45.194" xlink:href="#linearGradient2320" gradientUnits="userSpaceOnUse" y1="70.881" gradientTransform="translate(1.2108 .17297)" x2="48.19" y2="75.131"/>
    <linearGradient id="linearGradient2825" x1="46.264" xlink:href="#linearGradient2320" gradientUnits="userSpaceOnUse" y1="74.245" gradientTransform="translate(1.2108 .17297)" x2="46.386" y2="74.581"/>
    <linearGradient id="linearGradient2829" x1="56.507" xlink:href="#linearGradient2338" gradientUnits="userSpaceOnUse" y1="72.471" gradientTransform="translate(1.2108 .17297)" x2="56.171" y2="71.646"/>
    <linearGradient id="linearGradient2833" x1="46.172" xlink:href="#linearGradient2338" gradientUnits="userSpaceOnUse" y1="78.128" gradientTransform="translate(1.2108 .17297)" x2="45.561" y2="76.324"/>
    <linearGradient id="linearGradient2837" x1="50.722" xlink:href="#linearGradient2338" gradientUnits="userSpaceOnUse" y1="77.669" gradientTransform="translate(1.2108 .17297)" x2="50.376" y2="76.76"/>
    <linearGradient id="linearGradient2841" x1="40.24" xlink:href="#linearGradient2338" gradientUnits="userSpaceOnUse" y1="79.382" gradientTransform="translate(1.2108 .17297)" x2="41.28" y2="80.849"/>
    <linearGradient id="linearGradient2847" x1="44.627" xlink:href="#linearGradient2320" gradientUnits="userSpaceOnUse" y1="65.903" gradientTransform="translate(1.2108 .17297)" x2="58.638" y2="52.93"/>
    <linearGradient id="linearGradient2853" x1="17.854" xlink:href="#linearGradient3494" gradientUnits="userSpaceOnUse" y1="50.528" gradientTransform="translate(1.2108 .17297)" x2="23.821" y2="63.963"/>
    <linearGradient id="linearGradient2857" x1="33.146" xlink:href="#linearGradient3494" gradientUnits="userSpaceOnUse" y1="43.191" gradientTransform="translate(1.2108 .17297)" x2="32.527" y2="41.512"/>
    <linearGradient id="linearGradient2861" x1="35.805" xlink:href="#linearGradient3494" gradientUnits="userSpaceOnUse" y1="58.465" gradientTransform="translate(1.2108 .17297)" x2="63.654" y2="33.384"/>
    <linearGradient id="linearGradient3494">
      <stop id="stop3496" stop-color="#cf8d00" offset="0"/>
      <stop id="stop3498" stop-color="#cea33e" offset="1"/>
    </linearGradient>
    <linearGradient id="linearGradient3158" x1="49.219" xlink:href="#linearGradient2320" gradientUnits="userSpaceOnUse" y1="69.234" gradientTransform="translate(1.2108 .17297)" x2="49.875" y2="69.234"/>
    <linearGradient id="linearGradient3162" x1="58.625" xlink:href="#linearGradient2320" gradientUnits="userSpaceOnUse" y1="62.594" gradientTransform="translate(1.2108 .17297)" x2="58.469" y2="62.125"/>
    <linearGradient id="linearGradient3166" x1="49.375" xlink:href="#linearGradient2320" gradientUnits="userSpaceOnUse" y1="72.812" gradientTransform="translate(1.2108 .17297)" x2="64.219" y2="62.062"/>
    <linearGradient id="linearGradient3170" x1="66.469" xlink:href="#linearGradient2320" gradientUnits="userSpaceOnUse" y1="54.078" gradientTransform="translate(1.2108 .17297)" x2="67.531" y2="54.078"/>
    <linearGradient id="linearGradient3174" x1="67.938" xlink:href="#linearGradient2320" gradientUnits="userSpaceOnUse" y1="54.5" gradientTransform="translate(1.2108 .17297)" x2="69.062" y2="54.5"/>
    <linearGradient id="linearGradient3180" x1="75.062" xlink:href="#linearGradient2320" gradientUnits="userSpaceOnUse" y1="54.688" gradientTransform="translate(1.2108 .17297)" x2="89.531" y2="72.5"/>
    <linearGradient id="linearGradient3184" x1="74.281" xlink:href="#linearGradient2320" gradientUnits="userSpaceOnUse" y1="63.219" gradientTransform="translate(1.2108 .17297)" x2="74.094" y2="63.469"/>
    <linearGradient id="linearGradient3190" x1="69.312" xlink:href="#linearGradient2320" gradientUnits="userSpaceOnUse" y1="60.625" gradientTransform="translate(1.2108 .17297)" x2="79.938" y2="77.438"/>
    <linearGradient id="linearGradient3194" x1="73.5" xlink:href="#linearGradient2338" gradientUnits="userSpaceOnUse" y1="70.906" gradientTransform="translate(1.2108 .17297)" x2="73" y2="71.531"/>
    <linearGradient id="linearGradient3198" x1="81.188" xlink:href="#linearGradient2338" gradientUnits="userSpaceOnUse" y1="79.875" gradientTransform="translate(1.2108 .17297)" x2="82.5" y2="78.75"/>
    <linearGradient id="linearGradient3202" x1="79.562" xlink:href="#linearGradient2338" gradientUnits="userSpaceOnUse" y1="81.047" gradientTransform="translate(1.2108 .17297)" x2="83.031" y2="81.391"/>
    <linearGradient id="linearGradient3206" x1="87.219" xlink:href="#linearGradient2338" gradientUnits="userSpaceOnUse" y1="85.875" gradientTransform="translate(1.2108 .17297)" x2="88.688" y2="83.812"/>
    <linearGradient id="linearGradient3212" x1="79.906" xlink:href="#linearGradient2320" gradientUnits="userSpaceOnUse" y1="71.5" gradientTransform="translate(1.2108 .17297)" x2="80.469" y2="71.547"/>
    <linearGradient id="linearGradient3218" x1="84.406" xlink:href="#linearGradient2320" gradientUnits="userSpaceOnUse" y1="74.219" gradientTransform="translate(1.2108 .17297)" x2="81.656" y2="76.906"/>
    <linearGradient id="linearGradient3222" x1="83.75" xlink:href="#linearGradient2320" gradientUnits="userSpaceOnUse" y1="76.75" gradientTransform="translate(1.2108 .17297)" x2="83.188" y2="77.375"/>
    <linearGradient id="linearGradient3226" x1="92.594" xlink:href="#linearGradient2320" gradientUnits="userSpaceOnUse" y1="77.938" gradientTransform="translate(1.2108 .17297)" x2="92.812" y2="77.656"/>
    <linearGradient id="linearGradient3230" x1="88.219" xlink:href="#linearGradient2320" gradientUnits="userSpaceOnUse" y1="74.656" gradientTransform="translate(1.2108 .17297)" x2="98.969" y2="91.375"/>
    <linearGradient id="linearGradient3234" x1="103.56" xlink:href="#linearGradient2320" gradientUnits="userSpaceOnUse" y1="81.5" gradientTransform="translate(1.2108 .17297)" x2="103.94" y2="81.5"/>
    <linearGradient id="linearGradient3238" x1="101.97" xlink:href="#linearGradient2320" gradientUnits="userSpaceOnUse" y1="81.688" gradientTransform="translate(1.2108 .17297)" x2="102.47" y2="81.719"/>
    <linearGradient id="linearGradient3242" x1="111.94" xlink:href="#linearGradient2338" gradientUnits="userSpaceOnUse" y1="91.281" gradientTransform="translate(1.2108 .17297)" x2="111.72" y2="90.719"/>
    <linearGradient id="linearGradient3246" x1="104.88" xlink:href="#linearGradient2320" gradientUnits="userSpaceOnUse" y1="91.469" gradientTransform="translate(1.2108 .17297)" x2="120.25" y2="81.281"/>
    <linearGradient id="linearGradient3250" x1="110.88" xlink:href="#linearGradient2320" gradientUnits="userSpaceOnUse" y1="82.281" gradientTransform="translate(1.2108 .17297)" x2="111.06" y2="82.781"/>
    <linearGradient id="linearGradient3254" x1="106.03" xlink:href="#linearGradient2320" gradientUnits="userSpaceOnUse" y1="82.469" gradientTransform="translate(1.2108 .17297)" x2="120.22" y2="70.531"/>
    <linearGradient id="linearGradient3258" x1="121.88" xlink:href="#linearGradient2320" gradientUnits="userSpaceOnUse" y1="77.156" gradientTransform="translate(1.2108 .17297)" x2="122.09" y2="77.688"/>
    <linearGradient id="linearGradient3262" x1="124.12" xlink:href="#linearGradient2320" gradientUnits="userSpaceOnUse" y1="71.75" gradientTransform="translate(1.2108 .17297)" x2="124.75" y2="71.75"/>
    <linearGradient id="linearGradient3266" x1="122.5" xlink:href="#linearGradient2320" gradientUnits="userSpaceOnUse" y1="72.734" gradientTransform="translate(1.2108 .17297)" x2="123.88" y2="72.734"/>
    <linearGradient id="linearGradient3270" x1="121.97" xlink:href="#linearGradient2320" gradientUnits="userSpaceOnUse" y1="74.969" gradientTransform="translate(1.2108 .17297)" x2="121.59" y2="75.531"/>
    <linearGradient id="linearGradient3274" x1="108.06" xlink:href="#linearGradient3494" gradientUnits="userSpaceOnUse" y1="71.25" gradientTransform="translate(1.2108 .17297)" x2="115.16" y2="63.5"/>
    <linearGradient id="linearGradient3278" x1="79.125" xlink:href="#linearGradient3494" gradientUnits="userSpaceOnUse" y1="36.062" gradientTransform="translate(1.2108 .17297)" x2="100.94" y2="69"/>
    <linearGradient id="linearGradient3282" x1="102.94" xlink:href="#linearGradient3494" gradientUnits="userSpaceOnUse" y1="51.75" gradientTransform="translate(1.2108 .17297)" x2="102.94" y2="50.25"/>
    <linearGradient id="linearGradient3286" x1="58.125" xlink:href="#linearGradient3494" gradientUnits="userSpaceOnUse" y1="26.562" gradientTransform="translate(1.2108 .17297)" x2="60.438" y2="29.75"/>
    <linearGradient id="linearGradient3290" x1="63.875" xlink:href="#linearGradient3494" gradientUnits="userSpaceOnUse" y1="23.562" gradientTransform="translate(1.2108 .17297)" x2="66.5" y2="20.625"/>
    <linearGradient id="linearGradient3294" x1="76" xlink:href="#linearGradient3494" gradientUnits="userSpaceOnUse" y1="24.938" gradientTransform="translate(1.2108 .17297)" x2="76.375" y2="22.75"/>
    <linearGradient id="linearGradient3298" x1="83.375" xlink:href="#linearGradient3494" gradientUnits="userSpaceOnUse" y1="32.375" gradientTransform="translate(1.2108 .17297)" x2="84.562" y2="30.469"/>
    <linearGradient id="linearGradient3302" x1="76.562" xlink:href="#linearGradient2320" gradientUnits="userSpaceOnUse" y1="54.5" gradientTransform="translate(1.2108 .17297)" x2="95.25" y2="35.25"/>
    <linearGradient id="linearGradient3306" x1="48.688" xlink:href="#linearGradient2320" gradientUnits="userSpaceOnUse" y1="31.062" gradientTransform="translate(1.2108 .17297)" x2="58" y2="47.938"/>
    <linearGradient id="linearGradient3310" x1="16" xlink:href="#linearGradient3332" gradientUnits="userSpaceOnUse" y1="60.875" gradientTransform="translate(1.2108 .17297)" x2="18.812" y2="65.875"/>
    <linearGradient id="linearGradient3314" x1="30.938" xlink:href="#linearGradient3332" gradientUnits="userSpaceOnUse" y1="67.156" gradientTransform="translate(1.2108 .17297)" x2="35.25" y2="62.531"/>
    <linearGradient id="linearGradient3318" x1="30.938" xlink:href="#linearGradient3332" gradientUnits="userSpaceOnUse" y1="67.156" gradientTransform="translate(21.711 -8.3895)" x2="35.25" y2="62.531"/>
    <linearGradient id="linearGradient3322" x1="16" xlink:href="#linearGradient3332" gradientUnits="userSpaceOnUse" y1="60.875" gradientTransform="translate(61.836 -4.0145)" x2="18.812" y2="65.875"/>
    <linearGradient id="linearGradient3326" x1="30.938" xlink:href="#linearGradient3332" gradientUnits="userSpaceOnUse" y1="67.156" gradientTransform="translate(80.273 9.4855)" x2="35.25" y2="62.531"/>
    <linearGradient id="linearGradient3330" x1="16" xlink:href="#linearGradient3332" gradientUnits="userSpaceOnUse" y1="60.875" gradientTransform="translate(78.961 9.6105)" x2="18.812" y2="65.875"/>
    <linearGradient id="linearGradient3348" x1="96.432" xlink:href="#linearGradient2320" gradientUnits="userSpaceOnUse" y1="80.138" gradientTransform="translate(1.2108 .17297)" x2="96.741" y2="80.933"/>
    <linearGradient id="linearGradient3352" x1="93.25" gradientUnits="userSpaceOnUse" y1="86.369" gradientTransform="translate(1.2108 .17297)" x2="99.349" y2="81.729">
      <stop id="stop3195" stop-color="#c2a05c" offset="0"/>
      <stop id="stop3197" stop-color="#d6be91" offset="1"/>
    </linearGradient>
    <linearGradient id="linearGradient4094" x1="30.781" xlink:href="#linearGradient3415" gradientUnits="userSpaceOnUse" y1="78.75" gradientTransform="translate(5.1483 5.0167)" x2="25.375" y2="84.625"/>
    <linearGradient id="linearGradient4097" x1="35.625" xlink:href="#linearGradient3415" gradientUnits="userSpaceOnUse" y1="83.219" gradientTransform="translate(5.1483 5.0167)" x2="30.781" y2="89.125"/>
    <linearGradient id="linearGradient4100" x1="33.562" xlink:href="#linearGradient2320" gradientUnits="userSpaceOnUse" y1="81.25" gradientTransform="translate(5.1483 5.0167)" x2="29.812" y2="84.969"/>
    <linearGradient id="linearGradient4103" x1="35.562" xlink:href="#linearGradient2320" gradientUnits="userSpaceOnUse" y1="90.594" gradientTransform="translate(5.1483 5.0167)" x2="38.594" y2="86.75"/>
    <linearGradient id="linearGradient4106" x1="40.688" xlink:href="#linearGradient2320" gradientUnits="userSpaceOnUse" y1="87.875" gradientTransform="translate(5.1483 5.0167)" x2="36.75" y2="92.188"/>
    <linearGradient id="linearGradient4119" x1="30.781" xlink:href="#linearGradient3415" gradientUnits="userSpaceOnUse" y1="78.75" gradientTransform="translate(1.2108 .17297)" x2="25.375" y2="84.625"/>
    <linearGradient id="linearGradient4122" x1="35.625" xlink:href="#linearGradient3415" gradientUnits="userSpaceOnUse" y1="83.219" gradientTransform="translate(1.2108 .17297)" x2="30.781" y2="89.125"/>
    <linearGradient id="linearGradient4125" x1="33.562" xlink:href="#linearGradient2320" gradientUnits="userSpaceOnUse" y1="81.25" gradientTransform="translate(1.2108 .17297)" x2="29.812" y2="84.969"/>
    <linearGradient id="linearGradient4128" x1="35.562" xlink:href="#linearGradient2320" gradientUnits="userSpaceOnUse" y1="90.594" gradientTransform="translate(1.2108 .17297)" x2="38.594" y2="86.75"/>
    <linearGradient id="linearGradient4131" x1="40.688" xlink:href="#linearGradient2320" gradientUnits="userSpaceOnUse" y1="87.875" gradientTransform="translate(1.2108 .17297)" x2="36.75" y2="92.188"/>
    <linearGradient id="linearGradient4144" x1="30.781" xlink:href="#linearGradient3415" gradientUnits="userSpaceOnUse" y1="78.75" gradientTransform="translate(-2.8204 9.5792)" x2="25.375" y2="84.625"/>
    <linearGradient id="linearGradient4147" x1="35.625" xlink:href="#linearGradient3415" gradientUnits="userSpaceOnUse" y1="83.219" gradientTransform="translate(-2.8204 9.5792)" x2="30.781" y2="89.125"/>
    <linearGradient id="linearGradient4150" x1="33.562" xlink:href="#linearGradient2320" gradientUnits="userSpaceOnUse" y1="81.25" gradientTransform="translate(-2.8204 9.5792)" x2="29.812" y2="84.969"/>
    <linearGradient id="linearGradient4153" x1="35.562" xlink:href="#linearGradient2320" gradientUnits="userSpaceOnUse" y1="90.594" gradientTransform="translate(-2.8204 9.5792)" x2="38.594" y2="86.75"/>
    <linearGradient id="linearGradient4156" x1="40.688" xlink:href="#linearGradient2320" gradientUnits="userSpaceOnUse" y1="87.875" gradientTransform="translate(-2.8204 9.5792)" x2="36.75" y2="92.188"/>
    <filter id="filter4171">
      <feGaussianBlur id="feGaussianBlur4173" stdDeviation="1.3673438"/>
    </filter>
  </defs>
  <g id="layer2" fill-rule="evenodd">
    <path id="path4158" filter="url(#filter4171)" fill-opacity=".66667" d="m47.898 34.079l-40.968 15.906-4.3442 9.532 1.9063 13.312 17.656 9.5 6.407 4.5-9.688 7.094 11.219 7.777 13.687-7.246-10.906-14.719 33.719-11.062 11.094 7.437 11.062 8.657 13.128 8.125 15.4-10.219-69.372-48.594zm-38.563 22.832l4.86 11.25-6.5823 2.235-3.1272-10.892 4.8495-2.593z"/>
    <path id="path2767" fill="url(#linearGradient2769)" d="m7.1351 70.314l-0.1297 1.297 17.689 13.172-0.03-1.743-17.246-12.842-0.2829 0.116z"/>
    <path id="path2771" fill="url(#linearGradient2773)" d="m7.3263 63.104l0.0918 7.002 17.246 12.934 0.122-0.886 1.346-2.477-0.062-2.813-18.744-13.76z"/>
    <path id="path2775" fill="url(#linearGradient2777)" d="m7.2958 52.463v10.58l1.009 0.734 0.4281-10.794-1.5595-0.704 0.1224 0.184z"/>
    <path id="path2779" fill="url(#linearGradient2781)" d="m12.31 59.465l-2.935 1.376 0.0612 1.346 2.9968-1.591-0.123-1.131z"/>
    <path id="path2783" d="m8.5189 53.319l-0.1224 10.305 0.9785-0.52 0.0306-9.479-0.8867-0.306z" fill="url(#linearGradient2785)"/>
    <path id="path2787" fill="url(#linearGradient2789)" d="m8.5189 63.654l0.795-0.458 15.442 11.711-0.123 1.07-16.114-12.323z"/>
    <path id="path2791" fill="url(#linearGradient2793)" d="m12.494 56.132l-0.031 9.449 12.201 9.234s0.397-9.357-0.031-9.571-12.17-9.265-12.17-9.265l0.031 0.153z"/>
    <path id="path2795" fill="url(#linearGradient2797)" d="m12.28 60.749l-2.9356 1.376 0.0918 1.193 3.0888 2.354-0.245-4.923z"/>
    <path id="path2799" d="m24.664 65.519v10.519s1.437 1.193 1.437 1.07c0-0.122-0.061-10.824-0.061-10.824l-1.376-0.765z" fill="url(#linearGradient2801)"/>
    <path id="path2805" d="m26.101 66.284l0.153 10.672 1.284-0.581-0.122-10.703-1.315 0.612z" fill="url(#linearGradient2807)"/>
    <path id="path2809" fill="url(#linearGradient2811)" d="m26.376 76.864l16.879-7.002 0.336 6.849-7.155 2.966-1.284-0.826-0.122-0.55-1.071-0.917-0.795-0.123-0.489 0.275s-0.978-0.611-1.101-0.611c-0.122 0-2.568 0.367-2.568 0.367l-2.355 1.743-0.489 0.183 0.214-2.354z"/>
    <path id="path2813" fill="url(#linearGradient2815)" d="m27.63 74.999c0.275-0.123 14.28-6.024 14.28-6.024l1.376 0.764-15.84 6.727"/>
    <path id="path2819" fill="url(#linearGradient2821)" d="m43.286 70.901l7.277-2.996 0.336 4.831-7.308 2.874-0.305-4.709z"/>
    <path id="path2823" fill="url(#linearGradient2825)" d="m43.469 75.61l7.278-2.997 0.978 0.979-8.256 3.302v-1.284z"/>
    <path id="path2827" fill="url(#linearGradient2829)" d="m36.62 79.83l32.687-13.515-0.122 2.109-13.454 5.443-17.644 7.064-0.672-0.581-0.795-0.52z"/>
    <path id="path2831" fill="url(#linearGradient2833)" d="m41.39 78.76l13.515-5.566 1.835 1.468-14.035 5.688-1.193-1.652"/>
    <path id="path2835" fill="url(#linearGradient2837)" d="m42.643 80.35l14.065-5.687 0.032 1.069-14.158 5.627 0.061-1.009z"/>
    <path id="path2839" fill="url(#linearGradient2841)" d="m41.329 78.76c0.214 0.275 1.376 1.498 1.376 1.498l-0.031 1.04-0.153 0.03-1.437-1.254 0.031-1.345 0.214 0.031z"/>
    <path id="path2845" fill="url(#linearGradient2847)" d="m27.385 65.703l0.275 9.234 14.219-5.962 1.437 0.703 0.092 1.162 7.094-3.058-0.153-2.171 17.399-6.788-0.062-9.448-21.801 8.745-18.5 7.583z"/>
    <path id="path2851" fill="url(#linearGradient2853)" d="m7.4422 52.336c0.5745 0 14.982-3.05 14.982-3.05l3.712 17.192-18.694-14.142z"/>
    <path id="path2855" fill="url(#linearGradient2857)" d="m7.0886 52.203l48.569-19.622 18.075-7.911-0.795 2.254-27.312 11.844-23.556 10.474-14.981 2.961z"/>
    <path id="path2859" fill="url(#linearGradient2861)" d="m22.291 49.198l3.89 17.147 43-17.545 3.89-21.964-24.086 10.562-26.694 11.8z"/>
    <path id="path3156" d="m50.43 65.517l1.218 0.625 0.094 7.156-0.937-0.75-0.375-7.031z" fill="url(#linearGradient3158)"/>
    <path id="path3160" fill="url(#linearGradient3162)" d="m50.555 65.735l1.031 0.407 16.156-6.469v-0.781l-17.219 6.687 0.032 0.156z"/>
    <path id="path3164" fill="url(#linearGradient3166)" d="m51.617 66.079s-0.281 7.375 0.125 7.281c0.406-0.093 17.625-6.937 17.625-6.937l-0.156-7.156-17.594 6.812z"/>
    <path id="path3168" d="m67.68 49.392l0.093 10.218s1.438-0.312 1.438-0.468c0-0.157-0.25-10.25-0.25-10.25l-1.281 0.5z" fill="url(#linearGradient3170)"/>
    <path id="path3172" d="m69.148 59.11l0.094-10.093 1.531 1.218-0.25 10.094-1.375-1.219z" fill="url(#linearGradient3174)"/>
    <path id="path3178" fill="url(#linearGradient3180)" d="m70.867 50.11l-0.219 9.469 11.438 8.938v2.968l7.219 5.032v-1.563l1.25-0.437 12.215 9.812 0.1-9.375-32.003-24.844z"/>
    <path id="path3182" fill="url(#linearGradient3184)" d="m70.617 59.423l0.031 0.937 10.25 8.438 1.094-0.438-11.375-8.937z"/>
    <path id="path3188" fill="url(#linearGradient3190)" d="m69.336 59.392l0.125 7.062 11.125 8.656 0.344-6.375-11.594-9.343z"/>
    <path id="path3192" fill="url(#linearGradient3194)" d="m69.336 66.329l-0.188 2.094 23.344 18.156 11.718 9.125v-2.062l-23.312-18.094-11.562-9.219z"/>
    <path id="path3196" fill="url(#linearGradient3198)" d="m79.117 75.048c-0.156 0.062-2.312 1.531-2.312 1.531l11.187 8.594 2.156-1.531-11.031-8.594z"/>
    <path id="path3200" d="m76.711 76.61l-0.063 1.375 11.063 8.532 0.031-1.657-11.031-8.25z" fill="url(#linearGradient3202)"/>
    <path id="path3204" fill="url(#linearGradient3206)" d="m87.773 85.142l2.344-1.469 0.375 1.344-2.625 1.562-0.094-1.437z"/>
    <path id="path3210" fill="url(#linearGradient3212)" d="m80.898 68.767l-0.281 6.156 1.344-0.813 0.062-5.593-1.125 0.25z"/>
    <path id="path3216" fill="url(#linearGradient3218)" d="m82.023 71.579l-0.187 2.625 7.406 5.719-0.094-3.5-7.125-4.844z"/>
    <path id="path3220" fill="url(#linearGradient3222)" d="m80.555 74.829l1.406-0.656 7.187 5.781-0.031 1.938-8.562-6.813v-0.25z"/>
    <path id="path3224" fill="url(#linearGradient3226)" d="m90.648 74.642l-1.5 0.531 13.652 10.781-0.06-1.656-12.092-9.656z"/>
    <path id="path3228" fill="url(#linearGradient3230)" d="m89.586 75.517c0.187 0.406 14.654 11.437 14.654 11.437l0.03 6.969-15.09-11.938-0.032-6.281 0.438-0.187z"/>
    <path id="path3232" fill="url(#linearGradient3234)" d="m104.3 76.048l-0.03 11.094 1.75-0.75-0.25-10.969-1.47 0.625z"/>
    <path id="path3236" fill="url(#linearGradient3238)" d="m102.8 75.204l-0.03 10.781 1.25 0.907 0.16-10.844-1.38-0.844z"/>
    <path id="path3240" fill="url(#linearGradient3242)" d="m104.15 93.767l22.44-8.875 0.25 1.562-22.79 9.125 0.1-1.812z"/>
    <path id="path3244" fill="url(#linearGradient3246)" d="m104.34 87.142l21.96-9.157 0.25 6.938s-22.28 8.875-22.28 8.75-0.03-6.531 0.07-6.531z"/>
    <path id="path3248" fill="url(#linearGradient3250)" d="m105.99 84.767l0.1 1.656 19.15-8.063-1.56-0.843-17.69 7.25z"/>
    <path id="path3252" fill="url(#linearGradient3254)" d="m106.02 84.767l-0.25-9.25 16.28-6.657-0.03 9.438-16 6.469z"/>
    <path id="path3256" fill="url(#linearGradient3258)" d="m122.18 75.298l1.59 1.062-0.06 1.282-1.62 0.656 0.09-3z"/>
    <path id="path3260" fill="url(#linearGradient3262)" d="m125.12 78.235l-0.22-10.625 1.72-0.375-0.13 10.594-1.31 0.625-0.06-0.219z"/>
    <path id="path3264" d="m123.71 68.11l0.06 9.5 1.32 0.563-0.1-10.531-1.28 0.468z" fill="url(#linearGradient3266)"/>
    <path id="path3268" fill="url(#linearGradient3270)" d="m122.24 74.173l-0.03 1.156 1.53 1.094v-1.375l-1.5-0.875z"/>
    <path id="path3272" fill="url(#linearGradient3274)" d="m112.21 60.048l-7.78 15.75 21.78-8.781-14-6.969z"/>
    <path id="path3276" fill="url(#linearGradient3278)" d="m69.086 48.985l35.374 27.188 0.13-0.563 7.75-15.562-39.317-33.188-3.937 22.125z"/>
    <path id="path3280" fill="url(#linearGradient3282)" d="m126.34 66.86l-14.07-6.937-39.059-33 14.812 10.312 27.627 21.25 10.69 8.375z"/>
    <path id="path3284" fill="url(#linearGradient3286)" d="m47.398 26.923l26.25-2.563-0.125 0.438-18.25 7.812-7.875-5.687z"/>
    <path id="path3288" fill="url(#linearGradient3290)" d="m47.773 26.673l25.938-7.313-0.125 4.938-24.25 2.625-1.563-0.25z"/>
    <path id="path3292" fill="url(#linearGradient3294)" d="m73.648 19.423l0.063 5.062 21.75 8.688-21.813-13.75z"/>
    <path id="path3296" fill="url(#linearGradient3298)" d="m73.773 24.423l22.563 9.25-8.625 3.187-14.75-9.937 0.812-2.5z"/>
    <path id="path3300" fill="url(#linearGradient3302)" d="m87.586 36.86l8.562-3.187 0.313 10-8.875-6.813z"/>
    <path id="path3304" fill="url(#linearGradient3306)" d="m55.648 32.61l-8.562-5.812 0.187 9.187 8.375-3.375z"/>
    <path id="path3308" fill="url(#linearGradient3310)" d="m15.648 58.61l0.125 4.563 5.313 4.062-0.063-4.75-5.375-3.875z"/>
    <path id="path3312" d="m31.461 64.048l0.125 5.062 6.25-2.5-0.25-4.937-6.125 2.375z" fill="url(#linearGradient3314)"/>
    <path id="path3316" d="m51.961 55.485l0.125 5.063 6.25-2.5-0.25-4.938-6.125 2.375z" fill="url(#linearGradient3318)"/>
    <path id="path3320" fill="url(#linearGradient3322)" d="m76.273 54.423l0.125 4.562 5.313 4.063-0.063-4.75-5.375-3.875z"/>
    <path id="path3324" d="m110.52 73.36l0.13 5.063 6.25-2.5-0.25-4.938-6.13 2.375z" fill="url(#linearGradient3326)"/>
    <path id="path3328" fill="url(#linearGradient3330)" d="m93.398 68.048l0.125 4.562 5.313 4.063-0.063-4.75-5.375-3.875z"/>
    <path id="path3332" fill="#d59163" d="m16.711 59.423l-0.063 3.562 3.563 2.563 0.187-3.563-3.687-2.562z"/>
    <path id="path3334" fill="#d59163" d="m77.08 55.313l-0.062 3.562 3.562 2.563 0.188-3.563-3.688-2.562z"/>
    <path id="path3336" fill="#d59163" d="m52.906 55.18l-0.107 3.916 4.226-1.415-0.034-3.739-4.085 1.238z"/>
    <path id="path3338" fill="#d59163" d="m32.488 63.533l-0.107 3.916 4.226-1.415-0.034-3.739-4.085 1.238z"/>
    <path id="path3340" fill="#d59163" d="m111.73 72.858l-0.11 3.916 4.23-1.415-0.04-3.739-4.08 1.238z"/>
    <path id="path3342" fill="#d59163" d="m94.448 68.969l-0.062 3.562 3.562 2.563 0.188-3.563-3.688-2.562z"/>
    <path id="path3346" fill="url(#linearGradient3348)" d="m102.68 77.968l-10.164 4.066s-0.442 0.884-0.442 1.061 0.398 0.663 0.398 0.663l0.707 0.044 10.031-4.243 0.62-0.618-0.27-0.663-0.88-0.31z"/>
    <path id="path3350" fill="url(#linearGradient3352)" d="m93.488 83.581c0 0.575 0.133 4.419 0.133 4.419l7.819-3.093-0.04-4.596-7.912 3.27z"/>
    <path id="path3354" fill-opacity=".15686" d="m7.3263 63.104l0.0918 7.002 17.246 12.934 0.122-0.886 1.346-2.477-0.062-2.813-18.744-13.76z"/>
    <path id="path3356" fill-opacity=".15686" d="m12.494 56.132l-0.031 9.449 12.201 9.234s0.397-9.357-0.031-9.571-12.17-9.265-12.17-9.265l0.031 0.153z"/>
    <path id="path3358" fill-opacity=".15686" d="m12.28 60.749l-2.9356 1.376 0.0918 1.193 3.0888 2.354-0.245-4.923z"/>
    <path id="path3360" fill-opacity=".15686" d="m43.286 70.901l7.277-2.996 0.336 4.831-7.308 2.874-0.305-4.709z"/>
    <path id="path3362" fill-opacity=".15686" d="m41.329 78.76c0.214 0.275 1.376 1.498 1.376 1.498l-0.031 1.04-0.153 0.03-1.437-1.254 0.031-1.345 0.214 0.031z"/>
    <path id="path3364" fill-opacity=".15686" d="m7.4422 52.336c0.5745 0 14.982-3.05 14.982-3.05l3.712 17.192-18.694-14.142z"/>
    <path id="path3366" fill-opacity=".15686" d="m70.867 50.11l-0.219 9.469 11.438 8.938v2.968l7.219 5.032v-1.563l1.25-0.437 12.215 9.812 0.1-9.375-32.003-24.844z"/>
    <path id="path3368" fill-opacity=".15686" d="m69.336 59.392l0.125 7.062 11.125 8.656 0.344-6.375-11.594-9.343z"/>
    <path id="path3370" fill-opacity=".15686" d="m76.711 76.61l-0.063 1.375 11.063 8.532 0.031-1.657-11.031-8.25z"/>
    <path id="path3372" fill-opacity=".15686" d="m82.023 71.579l-0.187 2.625 7.406 5.719-0.094-3.5-7.125-4.844z"/>
    <path id="path3374" fill-opacity=".15686" d="m122.18 75.298l1.59 1.062-0.06 1.282-1.62 0.656 0.09-3z"/>
    <path id="path3376" fill-opacity=".15686" d="m69.086 48.985l35.374 27.188 0.13-0.563 7.75-15.562-39.317-33.188-3.937 22.125z"/>
    <path id="path3378" fill-opacity=".15686" d="m47.398 26.923l26.25-2.563-0.125 0.438-18.25 7.812-7.875-5.687z"/>
    <path id="path4008" fill="url(#linearGradient4106)" d="m44.711 88.954l1.469 0.719 0.468 1.125 0.125 1.031-0.156 1.188-0.437 1.125-1 1.312-1.344 1.563-1.125 0.656-1.563 0.437-1.187-0.093-1.75-1.719 1.656-5 4.844-2.344z"/>
    <path id="path4010" fill="url(#linearGradient4103)" d="m45.617 89.704l-0.094 1.938-1.031 2.687-2.812 2.375-2.188 1.094-1.469-1.594 2.25-6.437 4.469-1.282 0.875 1.219z"/>
    <path id="path4012" fill="url(#linearGradient4100)" d="m35.492 81.704l3.688 2.188 2.906 1.937 2.5 2.094s1.5 1.594 1.375 1.562c-0.125-0.031-1.969-0.031-1.969-0.031l-1.344 0.594-1.125 1.094-1.093 1.312-0.532 1-0.562 1.406-0.313 0.938-0.031 0.625 0.219 1.344-1.875-0.938-2.344-1.344-3.406-2.812-2.375-2.063-0.469-0.843s-0.187-1.438-0.187-1.563 0.187-1.437 0.187-1.437l1.438-2.657 2.312-1.875 3-0.531z"/>
    <path id="path4014" fill="url(#linearGradient4097)" d="m43.117 86.267l-2.656 1.281-2.438 1.937-1.562 1.907-0.813 1.937-0.406 1.781-0.062 0.969 0.75 0.781 1 0.157 0.281-0.907 0.375-1.843 1.375-2.688 1.156-1.344s1.813-1.437 1.938-1.437 3.093-1 2.812-1.125-0.656-0.656-0.656-0.656l-1.094-0.75z"/>
    <path id="path4016" fill="url(#linearGradient4094)" d="m31.273 92.798l0.5-1.844 0.813-2.156 1.344-2 2.437-2 2.625-1.313c0.154-0.25-0.275-0.5-0.5-0.75l-1.062-0.593-1.469 0.656-1.906 1.031-1.719 1.406-1.125 1.563-1.188 2.281-0.562 2.125 0.281 0.75 0.813 0.563 0.718 0.281z"/>
    <path id="path3986" fill="url(#linearGradient4156)" d="m36.742 93.517l1.469 0.718 0.469 1.125 0.125 1.032-0.157 1.187-0.437 1.125-1 1.316-1.344 1.56-1.125 0.66-1.562 0.43-1.188-0.09-1.75-1.72 1.656-5 4.844-2.343z"/>
    <path id="path3988" fill="url(#linearGradient4153)" d="m37.648 94.267l-0.093 1.937-1.032 2.688-2.812 2.378-2.188 1.09-1.468-1.59 2.25-6.441 4.468-1.281 0.875 1.219z"/>
    <path id="path3990" fill="url(#linearGradient4150)" d="m27.523 86.267l3.688 2.187 2.906 1.938 2.5 2.093s1.5 1.594 1.375 1.563-1.969-0.031-1.969-0.031l-1.343 0.593-1.125 1.094-1.094 1.313-0.531 1-0.563 1.406-0.312 0.937-0.032 0.63 0.219 1.34-1.875-0.94-2.344-1.34-3.406-2.815-2.375-2.062-0.469-0.844s-0.187-1.437-0.187-1.562 0.187-1.438 0.187-1.438l1.438-2.656 2.312-1.875 3-0.531z"/>
    <path id="path3992" fill="url(#linearGradient4147)" d="m35.148 90.829l-2.656 1.281-2.437 1.938-1.563 1.906-0.812 1.938-0.407 1.781-0.062 0.967 0.75 0.78 1 0.16 0.281-0.91 0.375-1.841 1.375-2.687 1.156-1.344s1.813-1.438 1.938-1.438 3.094-1 2.812-1.125c-0.281-0.125-0.656-0.656-0.656-0.656l-1.094-0.75z"/>
    <path id="path3994" fill="url(#linearGradient4144)" d="m23.305 97.36l0.5-1.843 0.812-2.157 1.344-2 2.437-2 2.625-1.312c0.154-0.25-0.275-0.5-0.5-0.75l-1.062-0.594-1.469 0.656-1.906 1.032-1.719 1.406-1.125 1.562-1.187 2.282-0.563 2.125 0.281 0.75 0.813 0.562 0.719 0.281z"/>
    <path id="path3965" fill="url(#linearGradient4131)" d="m40.773 84.11l1.469 0.719 0.469 1.125 0.125 1.031-0.156 1.188-0.438 1.125-1 1.312-1.344 1.563-1.125 0.656-1.562 0.438-1.188-0.094-1.75-1.719 1.657-5 4.843-2.344z"/>
    <path id="path3961" fill="url(#linearGradient4128)" d="m41.68 84.86l-0.094 1.938-1.031 2.687-2.813 2.375-2.187 1.094-1.469-1.594 2.25-6.437 4.469-1.281 0.875 1.218z"/>
    <path id="path3957" fill="url(#linearGradient4125)" d="m31.555 76.86l3.687 2.188 2.906 1.937 2.5 2.094s1.5 1.594 1.375 1.563c-0.125-0.032-1.968-0.032-1.968-0.032l-1.344 0.594-1.125 1.094-1.094 1.312-0.531 1-0.563 1.407-0.312 0.937-0.031 0.625 0.218 1.344-1.875-0.938-2.343-1.343-3.407-2.813-2.375-2.062-0.468-0.844s-0.188-1.438-0.188-1.563 0.188-1.437 0.188-1.437l1.437-2.656 2.313-1.875 3-0.532z"/>
    <path id="path3969" fill="url(#linearGradient4122)" d="m39.18 81.423l-2.657 1.281-2.437 1.938-1.563 1.906-0.812 1.937-0.406 1.782-0.063 0.968 0.75 0.782 1 0.156 0.281-0.906 0.375-1.844 1.375-2.688 1.157-1.343s1.812-1.438 1.937-1.438 3.094-1 2.813-1.125c-0.282-0.125-0.657-0.656-0.657-0.656l-1.093-0.75z"/>
    <path id="path3973" fill="url(#linearGradient4119)" d="m27.336 87.954l0.5-1.844 0.812-2.156 1.344-2 2.438-2 2.625-1.312c0.153-0.25-0.275-0.5-0.5-0.75l-1.063-0.594-1.469 0.656-1.906 1.031-1.719 1.407-1.125 1.562-1.187 2.281-0.563 2.125 0.282 0.75 0.812 0.563 0.719 0.281z"/>
  </g>
  <g id="layer1">
    <path id="path2745" fill-rule="evenodd" d="m73.742 19.11l-26.75 7.563 0.125 9.156-40.125 16.344 0.0001 17.625-0.125 1.844 17.656 13.343 0.032 0.188c0.29 0.315 0.567 0.626 0.875 0.937-0.011 0.065-0.021 0.061-0.032 0.094-0.69 0.235-1.275 0.627-1.937 1.063-2.011 1.735-3.313 3.97-3 6.687 0.005 0.041-0.037 0.084-0.031 0.125l0.093 0.531c0.291 0.315 0.599 0.627 0.907 0.938-0.051 0.296-0.101 0.15-0.125 0.469 0.57 0.551 1.297 1.454 2.25 1.687 0.005-0.048-0.006-0.139 0-0.187 1.085 0.937 2.258 1.86 3.531 2.723-0.015 0.13-0.021 0.27-0.031 0.4 0.709 0.87 1.312 1.12 2.25 1.22 0.008-0.07 0.021-0.14 0.031-0.22 0.83 0.48 1.688 0.94 2.594 1.38 0.16 0.1 0.828 0.31 1.125 0.43l0.968-0.21c0.039-0.09-0.13-0.25-0.187-0.35 0.049-0.02 0.42 0.24 0.469 0.22 0.236-0.09 0.473-0.17 0.687-0.28 0.052-0.03-0.144-0.25-0.094-0.28 0.057-0.03 0.351 0.12 0.407 0.09 0.31 0.01 0.386-0.21 0.562-0.37 0.044-0.04-0.045-0.25 0-0.28 0.049-0.05 0.232 0.1 0.281 0.06 0.157-0.13 0.325-0.27 0.469-0.41 0.062-0.05-0.151-0.35-0.094-0.4 0.054-0.06 0.386 0.11 0.438 0.06 0.149-0.16 0.256-0.31 0.406-0.47 0.034-0.04-0.221-0.3-0.187-0.34 0.031-0.04 0.343 0.13 0.375 0.09 0.132-0.17 0.287-0.33 0.406-0.5 0.039-0.06-0.225-0.319-0.188-0.376 0.035-0.053 0.373 0.085 0.407 0.031 0.11-0.177 0.188-0.347 0.281-0.531 0.025-0.049-0.18-0.232-0.156-0.281 0.025-0.053 0.289 0.022 0.312-0.031 0.083-0.187 0.157-0.369 0.219-0.563 0.016-0.051-0.234-0.229-0.219-0.281 0.014-0.049 0.3 0.05 0.313 0 0.008-0.031 0.024-0.062 0.031-0.094 0.312 0.162 0.614 0.313 0.937 0.469 0.16 0.104 0.797 0.315 1.094 0.437l1-0.218c0.039-0.084-0.131-0.249-0.187-0.344 0.049-0.017 0.388 0.237 0.437 0.219 0.236-0.087 0.474-0.174 0.688-0.282 0.051-0.025-0.113-0.254-0.063-0.281 0.057-0.031 0.351 0.126 0.406 0.094 0.28-0.023 0.387-0.212 0.563-0.375 0.044-0.038-0.077-0.243-0.031-0.281 0.049-0.042 0.262 0.104 0.312 0.062 0.157-0.132 0.325-0.266 0.469-0.406 0.062-0.054-0.183-0.35-0.125-0.406 0.054-0.054 0.386 0.117 0.437 0.062 0.15-0.159 0.288-0.31 0.438-0.469 0.034-0.04-0.221-0.303-0.188-0.343 0.032-0.039 0.344 0.132 0.375 0.093 0.133-0.164 0.256-0.328 0.375-0.5 0.039-0.055-0.224-0.318-0.187-0.375 0.035-0.052 0.404 0.085 0.437 0.032 0.111-0.177 0.188-0.348 0.282-0.532 0.024-0.048-0.211-0.231-0.188-0.281 0.025-0.052 0.32 0.022 0.344-0.031 0.082-0.187 0.156-0.369 0.219-0.563 0.016-0.051-0.265-0.229-0.25-0.281 0.014-0.049 0.299 0.05 0.312 0 0.06-0.234 0.13-0.475 0.156-0.719 0.008-0.074-0.286-0.361-0.281-0.437 0.005-0.08 0.28 0.049 0.281-0.031 0.004-0.33 0.004-0.686-0.062-1.032-0.012-0.063-0.324-0.248-0.344-0.312-0.029-0.094 0.246-0.062 0.219-0.156-0.12-0.42-0.263-0.838-0.5-1.282-0.328-0.378-0.566-0.486-1.594-1.531 0.128-0.046 0.274-0.112 0.406-0.156-0.543-0.786-1.339-1.31-2.187-1.875-0.018 0.015-0.044 0.017-0.063 0.031-0.119-0.419-0.294-0.869-0.531-1.312-0.328-0.378-0.534-0.487-1.562-1.532 0.128-0.046 0.242-0.081 0.375-0.125-0.543-0.785-1.339-1.341-2.188-1.906-0.081 0.066-0.168 0.153-0.25 0.219-0.116-0.099-0.26-0.19-0.375-0.281l2.625-1.063v0.156l1.469 1.438 14.406-5.781v-1.157l-0.969-0.718 13.157-5.313 9 7-1.532 1.031v1.469l11.407 8.656 2.468-1.593v0.062l2.938 2.281v0.657l0.562-0.219 10.222 7.937 22.93-9.281-0.18-1.5-0.07-18.062-30.089-23.5v-9.813l-22.969-14.594zm-0.281 0.625l-0.125 4.438-24.031 2.594 24.156-7.032zm0.437 0.188l19.282 12.156-19.25-7.75-0.032-4.406zm-2.125 0.625l-1.625 0.5-0.093-0.094-0.063 0.125-4 1.25-0.406-0.187-0.094 0.281 0.063 0.031-4.219 1.313-0.406-0.25-0.188 0.156 0.313 0.187-0.969 0.282 0.219 0.156 1-0.313 1.281 0.719 0.312-0.062-1.312-0.75 4.281-1.313 2.969 1.25-0.375 0.156v0.063l0.469-0.156 0.687 0.281 0.188-0.063-0.657-0.312 2.844-0.969 0.438 0.313 0.156-0.063-0.375-0.312 0.594-0.219-0.094-0.125-0.625 0.219-1.719-1.438 1.719-0.531-0.313-0.125zm-1.812 0.781l1.906 1.406-2.812 1.032-2.782-1.313 3.688-1.125zm6.75 1.438l-0.156 0.187c0.326 0.204 0.644 0.418 0.968 0.625l-2.718 0.656-0.032 0.125 2.969-0.625c0.813 0.522 1.634 1.027 2.438 1.563l-1.063 0.25 0.094 0.125 1.125-0.25c1.229 0.821 2.463 1.642 3.687 2.469l0.063-0.094c-1.16-0.861-2.289-1.649-3.438-2.438l0.938-0.218 0.062-0.157-1.156 0.25c-0.769-0.526-1.562-1.071-2.375-1.593l0.813-0.157-0.157-0.187-0.875 0.219c-0.393-0.252-0.777-0.496-1.187-0.75zm-3.469 1.75l-17.406 7.875-7.531-5.094 24.937-2.781zm-15.625 0.156l-3 0.812 0.188 0.219 2.843-0.875-0.031-0.156zm16.469 0l21.406 8.875-8.094 3.062 0.032-0.093-1.5-1.032-11.844-10.812zm-0.25 0.219l9.906 9.125-9.687-6.563-0.782-0.656 0.563-1.906zm-0.5 0.031l-0.438 1.719-17.593 7.718v-0.031l-1.125-0.156 8.843-3.906v-0.032l5.094-1.75-0.094-0.187-9.25 3.187 0.063 0.188 2.719-0.938-7.625 3.407-1.094-0.157-0.156 0.188 0.906 0.125-0.906 0.406 0.218 0.031 0.938-0.406 1.219 0.156-33.063 14.532-12.875 2.75 17.719-7.219-0.031 0.156 0.593 0.094-6.281 2.625h-0.781l-0.344 0.156h0.719l-1.313 0.563 0.282 0.218 1.781-0.75 2.469 0.032 0.093-0.188-2.156-0.031 5.969-2.531 1.781 0.312 0.031-0.25-1.468-0.219 11.218-4.75-0.031-0.156-11.656 4.844-0.844-0.125 16.031-6.5 9.938-4.063 3.531-1.437 2.406-1.063 14.563-6.562zm-30.438 13.125l-0.093 0.187 0.656 0.407-0.906 0.406 0.031 0.219 1.125-0.5 0.25 0.156 0.281-0.188-0.219-0.093 5.875-2.594-0.093-0.281-6.032 2.718-0.875-0.437zm17.219-11.75l-0.187 0.219 0.937 0.843-6.687 0.907-1.5-1.094-0.282 0.156 1.344 0.969-1.281 0.187v0.157l1.469-0.188 2.531 1.844 0.156-0.25-2.281-1.656 6.656-0.907 0.781 0.688 0.188-0.156-0.625-0.594 5.812-0.781v-0.125l-5.937 0.812-1.094-1.031zm-12.812 0.719l6.031 4.437-0.031 1.844-1.063 0.437-4.812-3.531-0.125-3.187zm25.437 0.125l-3.875 21.5-42.594 17.218-3.75-16.5 50.219-22.218zm0.375 0.156l38.813 32.656-7.66 15.875-17.184-13.281-17.594-13.594 3.625-21.656zm7.438 1.375l-0.25 0.187 6.656 4.688-1.531 0.687 0.093 0.25 1.625-0.781 2.063 1.438 0.281-0.032-2.125-1.531 2.938-1.406-0.125-0.063-3 1.344-6.625-4.781zm-4.844 0.187l10.25 7.219 0.969 0.875 9.468 7.281 28.442 21.782-12.6-6.344-36.529-30.813zm20.687 15.375l-7.468-4.5-0.157 0.094 7.75 4.594-0.125-0.188zm-21.625-14.218l-0.156 1.093c-0.373-0.334-0.753-0.663-1.125-1l-0.187 0.157c0.414 0.375 0.833 0.751 1.25 1.125l-2 13.125-0.344-0.25-0.125 0.156 0.437 0.312-0.25 1.532 0.188 0.187 0.25-1.594 4.406 3.157-0.375 2.718 0.281 0.094 0.344-2.625 1.5 1.063 0.156-0.125-1.625-1.157 1.282-9.375 1.906 1.563 0.125-0.281-2-1.625 0.062-0.438-0.187-0.094-0.063 0.375-3.718-3.062-0.125 0.281 3.812 3.125-1.344 9.344-4.406-3.156 2.063-13.032c3.433 3.07 6.933 6.07 10.437 9.063l-2.062 8 0.25 0.125 2.031-7.938c2.142 1.83 4.281 3.655 6.406 5.5l0.031-0.25c-2.113-1.847-4.247-3.676-6.375-5.5l0.5-2-0.281 0.063-0.437 1.75c-3.512-3.01-7.018-6.006-10.469-9.094l0.187-1.156-0.25-0.156zm-27.343 0.375l2.593 1.906-0.031 2.312-0.562 0.282-1.875-1.344-0.125-3.156zm20.125 0.125c-0.003 0.014 0.015 0.063 0.031 0.125 0.03-0.069-0.025-0.162-0.031-0.125zm0.031 0.125c-0.015 0.034-0.061 0.051-0.125 0.062 0.277 2.495 0.004 5.027 0.125 7.531l-3.563 1.532c-0.53-2.024-1.062-4.048-1.625-6.063l-0.187 0.156c0.544 2.012 1.053 4.016 1.562 6.032l-9.531 4.093-2.469-5.218 5.219-2.25 1.188 2.968 0.156-0.187-1.156-2.844 2.812-1.219-0.187-0.187-2.719 1.187-0.281-0.687-0.188 0.062 0.281 0.688-5.25 2.25-0.156-0.344-0.094 0.219 0.094 0.187-18.187 7.844-0.125-0.375-0.282 0.094 0.125 0.375-6.812 2.937c-0.082-0.27-0.168-0.541-0.25-0.812-0.236-0.236 0.041-0.146-0.281-0.063 0.095 0.336 0.214 0.666 0.312 1l-1.125 0.469 0.031 0.25 1.157-0.5c0.743 2.512 1.537 5.008 2.343 7.5h0.282c-0.831-2.523-1.632-5.053-2.407-7.594l6.813-2.937 1.781 5.562-0.75 0.344-0.031 0.25 0.875-0.375 1.687 5.281-3.687 1.532-2.313-7.532-0.218-0.031 2.25 7.688-1.969 0.812 0.125 0.25 1.906-0.812 0.594 2.062 0.344-0.156-0.625-2.031 3.656-1.532 0.437 1.344h0.282l-0.469-1.437 8.437-3.532-0.187-0.156-8.313 3.438-1.687-5.313 4.219-1.844 0.656 1.875 0.187-0.093-0.625-1.875 2.25-0.969v-0.281l-2.312 1.031-0.969-2.844-0.312 0.063 1.031 2.875-4.188 1.875-1.781-5.594 18.219-7.844 2.531 5.219-6.187 2.656-0.657-1.406-0.156 0.094 0.625 1.406-1.906 0.812 0.062 0.219 1.938-0.844 3.437 7.563 0.344-0.063-3.594-7.593 6.157-2.688 2.812 5.844-0.5 0.219 0.156 0.125 0.407-0.188 0.375 0.75 0.125-0.031-0.375-0.781 6.125-2.782 0.562 1.469 0.219-0.094-0.531-1.468 0.531-0.25-0.031-0.219-0.594 0.281-0.906-2.469-0.282-0.031 0.969 2.594-6.125 2.812-2.781-5.843 9.469-4.094c0.176 0.695 0.349 1.398 0.531 2.094l0.281-0.125c-0.182-0.7-0.379-1.395-0.562-2.094l3.562-1.531c0.025 0.448 0.037 0.897 0.094 1.343l0.187 0.063c-0.069-0.485-0.126-0.975-0.156-1.469l1.031-0.437 0.032-0.188-1.063 0.469c-0.133-2.484 0.118-5.055-0.156-7.5-0.006-0.018 0.004-0.017 0-0.031zm-14.094 0.906l1.469 1.094-1.5 0.593 0.031-1.687zm-3.344 0.844l1.938 1.406-1.938 0.812v-2.218zm-2.593 1.375l1.656 1.218-1.594 0.657-0.062-1.875zm48.406 0.25v2.718l-4.625 1.813 0.031-2.781 4.594-1.75zm-4.781 1.812l-0.032 2.813-0.5 0.218-2.468-1.906 3-1.125zm4.781 1.188v3.312l-2.25 0.875-2.813-2.156 5.063-2.031zm0 3.531v2.375l-2.031-1.563 2.031-0.812zm0 3.875l-0.156 0.125 15.065 12.875-0.72-0.125-0.06 0.187 1.15 0.282 2.97 2.531 4.66 1.719-0.1-0.344-4.37-1.531-2.66-2.282 2.06 0.5 0.04-0.343-2.5-0.5-15.379-13.094zm-52.938 0.5l-0.156 0.187 2.438 6.282 0.312 0.031-2.594-6.5zm46.532 1.75c-0.357 0.94-0.729 1.876-1.094 2.812l-2.5-2.187-0.063 0.25 2.469 2.187c-0.89 2.278-1.799 4.547-2.719 6.813l-1.75-1.469-0.031 0.156 1.719 1.469c-0.178 0.438-0.354 0.875-0.531 1.313l0.25 0.125c0.165-0.427 0.331-0.856 0.5-1.282l5.593 4.719c-0.324 0.659-0.654 1.322-0.937 2.031l0.25 0.063c0.26-0.651 0.55-1.302 0.844-1.938l8.437 7.094-0.625 1.125 0.125 0.188 0.658-1.157 1.34 1.125 0.25-0.093-1.5-1.25 3.19-5.688 1.03 0.906 0.19-0.187-1.06-0.969 1.68-3 2.38 2.219 0.19-0.125-2.47-2.281 0.93-1.688-0.12-0.187-0.97 1.718-5.593-5.187 1.223-2.438-0.22-0.093-1.19 2.375-0.688-0.657-0.125 0.157 0.719 0.687-1.656 3.281-2.938-2.593c0.296-0.709 0.575-1.423 0.813-2.157l-0.125-0.062c-0.207 0.764-0.468 1.489-0.75 2.187l-6-5.312c0.384-0.985 0.761-1.976 1.125-2.969l-0.25-0.031zm-20.75 2.562l0.125 9.782-1.032 0.406 0.032-9.813 0.875-0.375zm0.687 0.25l0.938 0.719-0.063 9.719-0.781-0.656-0.094-9.782zm-47.406 0.063l3.719 16.531-17.469-13.562 13.75-2.969zm45.406 0.219l0.031 2.562-2.843 1.125v-2.562l2.812-1.125zm21.094 0.156l5.969 5.312c-0.353 0.842-0.743 1.643-1.157 2.438l-3.406-2.938-0.281 0.063 3.594 3.125c-0.608 1.156-1.247 2.3-1.844 3.5l-5.594-4.688c0.901-2.274 1.826-4.534 2.719-6.812zm-17.656 0.656l5.093 4 0.032 2.281-5.157-4 0.032-2.281zm-52.5 0.344l-0.969 1-0.656-0.531-0.157 0.218 0.625 0.532-2.937 3.062-1.906-1.5 1.156-1.219-0.25-0.125-1 1.25-1.125-0.875-0.125 0.094 1.125 0.906-0.344 0.438 0.063 0.062 0.406-0.406 1.906 1.5-0.281 0.281 0.25 0.219 0.281-0.312 2.781 2.218 0.219-0.062-2.906-2.281 2.844-3.125 2.312 1.875-0.25 0.281h0.125l0.188-0.219 2.5 2.063 0.156-0.219-2.469-2.031 2.094-2.157-0.188-0.062-1.968 2.156-2.313-1.875 0.938-1.031-0.125-0.125zm46.062 0.062v2.563l-5.781 2.281v-2.5l5.781-2.344zm3.031 1.563l0.032 2.656-5.782 2.313v-2.625l5.75-2.344zm-59.812 0.156l0.6563 0.5-0.1563 10.125-0.5937-0.437 0.0937-10.188zm63.187 0.313l1.875 1.468-0.031 2.719-1.906-1.5 0.062-2.687zm-12.375 0.375v2.531l-0.25 0.094-0.062-2.5 0.312-0.125zm-49.718 0.156l0.3125 0.25 0.125 9.312-0.6875 0.344 0.25-9.906zm48.906 0.187l0.187 4.157-5.531 1.937-0.094-3.906 0.407-0.156v3.562l4.468-1.562v-3.813l0.563-0.219zm-0.875 0.344l0.094 3.469-4.032 1.437 0.063-3.343 3.875-1.563zm-47.281 0.031l2.6564 2.032-0.031 3.156-2.6567 1.25 0.0313-6.438zm89.968 0.375l5.597 5.188-1.69 3.031-5.594-4.937 1.687-3.282zm-26.593 0.125l3.125 2.438 0.031 2.094 2.094 1.625v0.718l-5.25-4.125v-2.75zm-11.344 0.344v2.656l-6.813 2.719v-0.781l3.563-1.344-0.063-1.906 3.313-1.344zm14.937 0l0.469 0.375v3.469l1.219 0.906v0.656l-1.75-1.312 0.062-4.094zm18.094 0.313l2.938 2.625-0.563 1.125 0.188 0.062 0.531-1.062 5.559 4.937-3.18 5.688-8.442-7.063c0.568-1.217 1.128-2.42 1.719-3.625l3.406 2.969 0.219-0.156-3.5-3.032c0.396-0.811 0.771-1.639 1.125-2.468zm-27.062 0.156l0.031 2.75-2.625 1.031v-2.75l2.594-1.031zm9.718 0.094l3.344 2.625-0.094 3.031-3.343-2.375 0.093-3.281zm-6.437 0.312l4.094 3.219v2.781l-4.188-3.219 0.094-2.781zm-19.188 0.375l0.063 2.469-1.969 0.781v-2.469l1.906-0.781zm13.125 0.344v2.75l-5.781 2.281v-2.719l5.781-2.312zm-51.937 0.094l2.5 1.906 0.062 2.5-2.562-1.875v-2.531zm6.312 0.375l-0.25 0.156 2 1.594-1.156 1.375 0.156 0.187 1.157-1.437 2.718 2.156 0.157-0.156-2.719-2.188 1.156-1.406-0.094-0.156-1.218 1.437-1.907-1.562zm30.407 0.031v2.5l-10.344 4.125v-2.438l10.344-4.187zm18.031 1.344v0.375l-5.469 2.125v-0.313l5.469-2.187zm13.344 0l0.406 0.312v4.063l-2.969-2.25v-0.688l2.469 1.813 0.094-3.25zm-10.188 0.343l1.594 1.219-0.031 0.656-1.532-1.218-0.031-0.657zm-19.031 0.188l0.031 1.781 2.844-1.094v0.782l-10 4v-2.594l7.125-2.875zm7.125 0l-0.031 2.75-8.813 3.531v-2.719l8.844-3.562zm-42.813 0.125l0.5 0.375v3.594l3.844 2.875 0.094-3.438 0.375 0.281 0.062 3.969-4.812-3.687-0.063-3.969zm51.563 0.031v0.469l-16.281 6.437 0.062 6.938c-0.146-0.1-0.288-0.209-0.406-0.375l-0.188-6.875 16.813-6.594zm7.469 0.094l5.5 4.344-0.032 2.656-5.468-4.219v-2.781zm6.906 0l5.125 4v2.219l-5.125-3.938v-2.281zm-69.125 0.156l2.125 1.563v2.687l-2.125-1.562v-2.688zm56.094 0.156l0.093 6.563-17.031 6.937-0.125-6.75 17.063-6.75zm-52.125 0.157l3.375 2.593-0.094 3.188-3.344-2.375 0.063-3.406zm53.937 0.031l10.906 8.719-0.562 0.218-10.344-8.406v-0.531zm-1.156 0.125l11 9.031-0.188 5.938-10.75-8.469-0.062-6.5zm-57.406 0.031v0.688l-2.6879 1.375v-0.844l2.6879-1.219zm60.312 0.25l5.281 4.125-0.031 0.688-5.25-4.157v-0.656zm39.848 0.313l13.12 6.531-20.66 8.625 7.54-15.156zm-50.41 0.281v0.281l-6.688 2.594v-0.188l6.688-2.687zm16.437 0.219l3.594 2.75v-1.938l1.719 1.344v2.75l-5.313-4.156v-0.75zm-66.219 0.093l-0.031 4.219-2.6249-1.969v-0.968l2.6559-1.282zm3 0.032l0.25 0.187 0.063 2.156 5.875 4.5 0.031-2.25 0.719 0.563-0.031 2.562-6.907-5.062v-2.656zm23.907 0.281l-0.032 2.469-1.125 0.437-0.062-2.406 1.219-0.5zm73.845 0.469l-0.28 0.031c0.33 1.017 0.69 2.028 1.06 3.031l-1.44 0.688 0.19 0.125 1.31-0.594c0.52 1.405 1.09 2.791 1.63 4.187-2.45 1.182-4.9 2.361-7.41 3.282l0.06 0.062c2.53-0.888 4.94-2.068 7.38-3.219 0.05 0.127 0.11 0.249 0.15 0.375l0.19-0.125c-0.04-0.113-0.08-0.23-0.12-0.343 1.34-0.634 2.69-1.249 4.06-1.813l0.53 1 0.16-0.094-0.47-1c0.39-0.16 0.79-0.32 1.19-0.468l-0.13-0.188c-0.38 0.147-0.75 0.311-1.12 0.469l-0.97-2.094-0.35 0.125 1.07 2.063c-1.35 0.571-2.7 1.202-4.04 1.843-0.52-1.376-1.02-2.764-1.53-4.156l2.53-1.125-0.18-0.312-2.44 1.187c-0.35-0.978-0.71-1.957-1.03-2.937zm-68.502 0.093v2.594l-9.281 3.719v-0.375l2.844-1.094-0.063-2.219 6.5-2.625zm-7.187 0.188l0.187 4.406-5.531 2.125 0.031-4.375 0.344-0.156 0.031 3.656 4.438-1.562v-3.907l0.5-0.187zm-24.375 0.125l2.125 1.562 0.031 0.032 2.594 1.906v2.5l-4.75-3.469v-2.531zm23.594 0.187l0.093 3.594-4.062 1.438 0.094-3.438 3.875-1.594zm13.375 0.219v2.688l-10.594 4.218v-2.656l10.594-4.25zm-28.407 0.563l3 2.312v2.188l-3.031-2.25 0.031-2.25zm62.438 0.031l6 4.656-0.031 2.813-5.969-4.719v-2.75zm3.375 0.125l5.812 4.531-0.031 2.125-5.781-4.469v-2.187zm-78.094 0.062l5.6249 4.282 7.094 5.406 2.562 1.969v0.531l-15.718-11.875 0.4371-0.313zm45.938 0.063v0.187l-4.938 1.907 0.125 2.125-5.25 2.218v-2.375l10.063-4.062zm25.593 0.156l6.094 4.813-0.031 2.562-6.063-4.687v-2.688zm-73.031 0.063l18.156 13.625v2.437c-0.597 0.833-1.016 1.754-1.218 2.75l-16.938-12.437 0.0001-6.375zm70.313 0.656l5.187 4.031-0.031 2.719-0.906-0.719 0.031-1.937-4.313-3.375 0.032-0.719zm-46.719 0.156l0.031 2.406-0.625 0.25v-2.406l0.594-0.25zm-0.781 0.313v2.406l-2.75 1.125-0.032-2.375 2.782-1.156zm-17.594 0.093l1.906 1.407v0.906l-1.906-1.438v-0.875zm4.937 0.938l6.625 4.875v2.437l-6.625-4.843v-2.469zm7.25 0.125l0.719 0.531 0.031 10.125-0.812-0.594 0.062-10.062zm2.188 0.156l0.062 10.125-0.687 0.281-0.094-10.093 0.719-0.313zm-4.969 0.188l2.156 1.593v2.594l-2.156-1.594v-2.593zm-7.312 0.125l2.656 1.937 0.031 0.031 4.219 3.094v1.063l-6.906-5.188v-0.937zm54.468 0.312l23.938 18.875v1.219l-2.781-2.125-0.032-0.906-11.406-8.875-0.719 0.468-8.968-6.875-0.032-1.781zm-0.281 0.031l-0.094 1.532-13.437 5.406-0.75-0.563-13.813 5.594-0.031 0.844-2.969 1.187c-0.294-0.219-0.694-0.505-1.093-0.781l32.187-13.219zm-30.062 0.157l-0.032 2.687-8.093 3.219v-2.625l8.125-3.281zm-7.782 0.25l0.032 2.125 3.625-1.407v0.407l-7.219 2.875-0.031-2.532 3.593-1.468zm78.937 0l-0.25 0.125 1.06 2.468 0.16-0.187-0.97-2.406zm-65.405 0.406v2.406l-1.25 0.531-0.063-0.937-1.656-0.75-6.719 2.781v-0.125l9.688-3.906zm81.465 0.031l-0.28 10.25-0.75 0.313-0.09-10.282 1.12-0.281zm-33.153 0.344l0.094 0.062 0.062 2.188-0.156-0.125v-2.125zm-3.125 0.031l3.281 2.563 0.063 2.343 3 2.282-0.031 0.625-3.25-2.563-3.063-2.437v-2.813zm34.808 0.063l0.16 9.875-1.06-0.469v-9.031l0.9-0.375zm-74.495 0.25l0.281 4.281-6.75 2.75-0.25-4.188 6.719-2.843zm43.468 0.125l0.438 0.343v3.657l3.844 2.875 0.093-3.5 0.532 0.406 0.093 4.375-4.937-3.906-0.063-4.25zm-10.5 0.062l6.157 4.75v1.406l-0.5 0.188v0.781l-5.657-4.406v-2.719zm3.563 0l6.219 4.938v2.437l-6.219-4.781v-2.594zm36.624 0.094l0.09 6.281-1.21-0.781 0.03-5.031 1.09-0.469zm-41.687 0.062l-0.093 5.469-0.813 0.438 0.219-5.594 0.687-0.313zm12.75 0.344l3.344 2.594-0.094 3.25-3.343-2.375 0.093-3.469zm-52.718 0.281l0.937 0.5-14.969 6.25v-0.906l14.032-5.844zm79.935 0.032v2.156l-2.59 1.094-2.1 0.843 0.04-2.218 4.65-1.875zm-90.998 0.968v2.657l-3 1.187-0.031-2.625 3.031-1.219zm12.188 0.032l0.312 6.312-7.031 2.875c-0.285-0.197-0.45-0.306-0.813-0.562l-0.187-0.344c-0.402-0.622-0.818-1.203-1.781-1.469-0.056 0.046-0.161 0.079-0.25 0.094-0.118 0.005-0.415-0.062-0.469 0.094-0.114-0.056-0.206-0.125-0.313-0.188l-0.593-0.344c-0.531-0.137-1.003-0.2-1.407-0.187-1.211 0.04-1.953 0.685-2.906 1.312-0.314 0.272-0.597 0.55-0.875 0.844l-0.031-1.594 16.344-6.843zm-35.563 0.25l17.094 12.75c-0.026 0.355-0.035 0.719 0 1.093l-17.219-12.875 0.1251-0.968zm74.781 0.062l6.782 5.281v0.25l-6.782-4.968v-0.563zm34.502 0.75l-0.03 4.25-5.44 2.188-0.09-4.188 0.46-0.187v3.687l4.47-1.562v-3.938l0.63-0.25zm-81.72 0.188v0.125l-7.188 2.968v-0.187l7.188-2.906zm-12.907 0.062l2.375 1.75v1.125l-2.375-1.781v-1.094zm99.717 0.063l-0.03 2.687-2.37 0.969v-2.656l2.4-1zm-39.623 0.062l6.813 5.25 0.031 2.656-6.906-5.531 0.062-2.375zm33.593 0l0.09 3.625-4.06 1.406 0.1-3.468 3.87-1.563zm-16.499 0.906l1.589 1.25-0.03 2.094-1.559-1.219v-2.125zm19.939 0.125v2.625l-9.41 3.844v-2.531l0.81-0.344 0.07 2.375 6.4-2.687 0.03-2.407 2.1-0.875zm-68.439 0.094l0.406 0.5-0.469 0.219-6.781 2.75-0.031-0.531 6.875-2.938zm4.062 0.5l1.625 1.25-13.562 5.594-1.25-1.469 13.187-5.375zm34.813 0l6.375 4.938 0.031 0.437-5.562-4.469-0.844 0.313v-1.219zm3.594 0.156l6.812 5.407-1.969 0.781-4.843-3.75v-2.438zm17.28 0.344l0.06 2.156-4.37 1.813-0.03-2.188 4.34-1.781zm-9.56 0.094l1.59 1.25v2.125l-1.59-1.219v-2.156zm21.44 0.469l1.25 0.812v0.906l-1.25-0.937v-0.781zm-40.504 0.062l7.125 5.625v1.438l-8.156-6.438 1.031-0.625zm39.874 0.063v2.812l-6.91 2.781 0.04-2.687 6.87-2.906zm-65.124 0.312v0.719l-13.75 5.531v-0.594l13.75-5.656zm34.031 0l6.469 5.219-0.906 0.375-6.563-5.188 1-0.406zm8.594 0.313l3.309 2.593v0.125l-2.31 0.938-3.749-2.938 0.031-0.593 2.719 2.093v-2.218zm-20.094 0.125l10.719 8.343-1.875 1.313-10.813-8.344 1.969-1.312zm43.223 0.25l1.25 0.906 0.03 1-1.28 0.531v-2.437zm-19.29 0.062l0.82 0.656v2.25c-0.11-0.307-0.38-0.549-0.82-0.656v-2.25zm2.38 0.313l0.22 10.375-1.06 0.437-0.04-10.469 0.88-0.343zm-15.875 0.156l6 4.625-3.032 1.219c-0.938 0.722-1.142 1.81 0.407 2.187l0.406-0.187v1.062l-3.688-2.906-0.093-6zm19.995 0.687v2.563l-3.37 1.375-0.03-2.5 3.4-1.438zm-32.745 0.063l10.781 8.219 0.062 1.031-10.75-8.156-0.093-1.094zm-45.219 0.406c0.25 0.125 0.536 0.28 0.781 0.406-0.196 0.09-0.404 0.185-0.594 0.282-0.345-0.203-0.691-0.425-1.031-0.625 0.277-0.028 0.561-0.052 0.844-0.063zm-1.031 0.063c0.38 0.217 0.753 0.436 1.125 0.656-0.384 0.198-0.769 0.43-1.125 0.656-0.512-0.32-0.987-0.649-1.5-0.969 0.468-0.166 0.966-0.279 1.5-0.343zm3.062 0.187c0.581 0.268 1.589 0.854 1.156 1.125-5.401 2.124-6.289 5.215-7.656 9.219-0.545-0.312-1.217-0.58-1.469-1.375 1.027-3.581 2.209-7.13 7.969-8.969zm81.033 0.031v2.719l-8.41 3.406-0.06-2.562 8.47-3.563zm7.06 0v0.719l-2.03 0.813v-0.688l2.03-0.844zm-92.78 0.188c0.51 0.324 1.022 0.644 1.531 0.969-0.415 0.267-0.814 0.536-1.188 0.843-0.533-0.348-1.086-0.684-1.625-1.031 0.352-0.355 0.793-0.594 1.282-0.781zm94.84 0.062l1.1 0.563-18.6 7.719-0.03-1.157 17.53-7.125zm-21.06 0.532c0.57-0.106 1.54 0.545 0.28 1.125l-9.998 4.25c-1.052-0.334-0.388-0.917-0.406-1.25 0.213 0.031 0.742 0.06 0.687 0.906 0.295-0.395 0.707-0.703-0.062-1.25l9.499-3.781zm23.28 0l0.1 6.343-21.47 8.688-0.03-5.938 21.4-9.093zm-29.873 0.125l1.75 1.343-0.375 0.157-1.344-1.063-0.031-0.437zm23.373 0.031v0.687l-9.59 3.875 0.03-0.562 9.56-4zm-91.935 0.094c0.535 0.351 1.094 0.71 1.625 1.062-0.358 0.302-0.685 0.627-1 0.969l-1.5-1.031c0.287-0.339 0.562-0.689 0.875-1zm13.656 0.406l1.344 1.406-0.063 0.938-1.312-1.313 0.031-1.031zm-6.344 0.062c1.317 0.73 2.64 1.487 3.625 2.5-0.229 0.107-0.462 0.23-0.687 0.344-1.352-1.007-2.547-1.803-3.719-2.531 0.257-0.099 0.503-0.225 0.781-0.313zm69.003 0.063v7.469l-0.88-0.688 0.03-5.969 0.07-0.031c0.44-0.173 0.68-0.471 0.78-0.781zm-69.94 0.281c1.309 0.834 2.569 1.68 3.75 2.563-0.392 0.201-0.752 0.429-1.125 0.656-1.225-0.889-2.55-1.739-3.875-2.594 0.4-0.22 0.784-0.44 1.25-0.625zm-7.313 0.25l1.469 1.031c-0.272 0.301-0.512 0.636-0.75 0.969l-1.469-1.031c0.217-0.336 0.491-0.658 0.75-0.969zm5.938 0.438c1.305 0.858 2.599 1.723 3.843 2.625-0.422 0.263-0.86 0.541-1.25 0.843-1.242-0.887-2.536-1.753-3.843-2.625 0.376-0.296 0.794-0.585 1.25-0.843zm69.965 0.031v0.594l-0.53-0.407 0.53-0.187zm-0.72 0.25l0.72 0.562 0.03 2.313-0.9-0.688v-2.125l0.15-0.062zm-0.59 0.25l0.06 4.156-7.309 2.875-0.063-3.906 7.312-3.125zm-75.374 0.094l1.437 1c-0.24 0.343-0.454 0.715-0.656 1.093-0.455-0.33-0.892-0.669-1.344-1 0.152-0.375 0.345-0.746 0.563-1.093zm5.375 0.312c1.287 0.867 2.575 1.741 3.812 2.625-0.374 0.299-0.728 0.628-1.062 0.969l-3.813-2.625c0.31-0.345 0.677-0.656 1.063-0.969zm68.839 0.656l-0.62 1.407-0.782-1.313 0.532 1.594 0.25 0.625-0.219 1.094 0.375 0.125 0.031-1.032 0.653-0.437 0.88-1.469-1.22 1.031 0.12-1.625zm-60.777 0.032c0.499 0.099 1.07 0.705 1.157 1.031-3.311 1.277-6.823 3.608-7.407 9.062-0.235 0.336-0.961 0.365-1.5-0.562-0.057-1.053 0.095-2.007 0.407-2.906 0.01 0.007 0.021 0.024 0.031 0.031l0.031-0.125c1.224-3.386 4.644-5.651 7.281-6.531zm-14.062 0.187c0.451 0.331 0.891 0.67 1.344 1-0.195 0.374-0.345 0.747-0.5 1.156-0.387-0.278-0.771-0.535-1.157-0.812 0.05-0.466 0.149-0.917 0.313-1.344zm4.906 0.188l3.75 2.625c-0.272 0.285-0.511 0.589-0.75 0.906l-3.75-2.563c0.219-0.331 0.476-0.655 0.75-0.968zm79.623 0.5v0.531l-3.5 1.406v-0.469l3.5-1.468zm-8.09 0.187l0.9 0.688v0.593l-0.9-0.718v-0.563zm-72.345 0.375l3.75 2.594c-0.251 0.342-0.543 0.649-0.75 1.031-1.235-0.832-2.437-1.684-3.625-2.531 0.179-0.381 0.387-0.725 0.625-1.094zm-4.407 0.188c0.376 0.27 0.75 0.54 1.125 0.812-0.137 0.372-0.302 0.785-0.406 1.188-0.165-0.124-0.334-0.252-0.5-0.375-0.073-0.207-0.113-0.434-0.219-0.625-0.037-0.334-0.025-0.686 0-1zm15.438 0c0.364 0.388 0.755 0.794 1.094 1.218-0.108-0.008-0.209 0.002-0.313 0-0.428-0.376-0.814-0.724-1.219-1.062 0.155-0.052 0.275-0.109 0.438-0.156zm-0.625 0.218c0.403 0.331 0.834 0.663 1.219 1-0.552 0.012-1.072 0.105-1.532 0.282-0.31-0.263-0.644-0.492-0.968-0.75 0.39-0.193 0.825-0.372 1.281-0.532zm57.5 0.032c-0.236-0.001-0.451 0.19-0.563 0.687l0.125 0.438c0.461-1.201 1.575 0.24 0.438 0.625l0.312 0.312c1.279-0.333 0.397-2.059-0.312-2.062zm4.439 0.25l0.9 0.75v0.968l-0.9-0.718v-1zm-11.595 0.125l0.218 0.875-2.343 1.625 0.062-1.094 2.063-1.406zm5.937 0.031c-1.266 0.039-1.959 0.775-1.562 1.312h0.062c1.143-0.084 1.545-0.845 1.563-1.25l-0.063-0.062zm0.156 0c0.193 0.832-0.872 1.528-1.75 1.5l1.375 1.25c0.665-0.213 1.415-0.393 1.25-0.938l-0.875-1.812zm-57.843 0.187c0.316 0.246 0.629 0.468 0.937 0.719-0.453 0.193-0.816 0.499-1.187 0.813-0.335-0.258-0.659-0.525-1-0.782 0.376-0.275 0.79-0.513 1.25-0.75zm-9.657 0.219c1.197 0.858 2.39 1.697 3.625 2.531-0.189 0.362-0.384 0.725-0.531 1.125-0.003 0.008 0.003 0.024 0 0.032-1.199-0.819-2.384-1.693-3.562-2.532 0.126-0.393 0.291-0.764 0.468-1.156zm12.532 0.5c0.046-0.002 0.265 0.221 0.312 0.219 0.084 1.969-0.518 3.417-1.5 4.562-0.164 0.191-0.317 0.387-0.5 0.563s-0.394 0.339-0.594 0.5c-0.929 0.749-1.999 1.361-3.125 1.937-0.122-0.139-0.237-0.316-0.281-0.5-0.01-0.039-0.368-0.271-0.375-0.312-0.008-0.045 0.38 0.109 0.375 0.062-0.095-0.4-0.006-0.76 0.031-1.125 0.013-0.05-0.232-0.261-0.218-0.312 0.013-0.051 0.298 0.081 0.312 0.031 0.108-0.393 0.254-0.78 0.406-1.156 0.015-0.037-0.265-0.213-0.25-0.25 0.015-0.034 0.329 0.065 0.344 0.031 0.136-0.316 0.27-0.61 0.438-0.906 0.021-0.038-0.147-0.244-0.125-0.281 0.02-0.036 0.228 0.066 0.25 0.031 0.18-0.299 0.372-0.581 0.593-0.844 0.035-0.041-0.16-0.241-0.125-0.281 0.042-0.047 0.333 0.077 0.375 0.031 0.249-0.265 0.522-0.503 0.813-0.719 0.047-0.035-0.205-0.278-0.156-0.312s0.417 0.158 0.468 0.125c0.311-0.201 0.613-0.395 0.969-0.531 0.062-0.024-0.126-0.323-0.062-0.344 0.068-0.023 0.398 0.239 0.468 0.219 0.375-0.111 0.797-0.188 1.219-0.219 0.04-0.003-0.102-0.217-0.062-0.219zm-4.282 0.125c0.343 0.254 0.692 0.527 1.032 0.781-0.321 0.287-0.643 0.593-0.907 0.938l-1.125-0.813c0.301-0.321 0.621-0.617 1-0.906zm4.969 0.094c0.09 0.002 0.189-0.006 0.281 0 0.149 0.294 0.263 0.598 0.344 0.875l-0.656-0.469c0.005-0.133 0.028-0.268 0.031-0.406zm-16.625 0.031c0.121 0.09 0.224 0.222 0.344 0.313-0.185-0.071-0.266-0.194-0.344-0.313zm76.058 0l2.57 2v6.188l-7.815-6.157 5.245-2.031zm25.25 0.156l0.19 1.094-22.47 8.844-9.778-7.469 1.031-0.406 8.657 6.812 22.37-8.875zm-98.402 0.407c1.177 0.839 2.362 1.651 3.563 2.468-0.143 0.409-0.25 0.862-0.344 1.313-1.201-0.814-2.398-1.668-3.562-2.531 0.084-0.419 0.21-0.819 0.343-1.25zm13.688 0.031l0.719 0.437c0.097 0.404 0.086 0.785 0.062 1.157l-0.844-0.594c0.041-0.318 0.044-0.652 0.063-1zm-6 0.312l1.125 0.813c-0.238 0.322-0.429 0.623-0.625 0.969l-1.25-0.844c0.214-0.322 0.477-0.636 0.75-0.938zm7.031 0c-0.054 0.04-0.104 0.083-0.156 0.125-0.012-0.009-0.02-0.021-0.031-0.031-0.022-0.07 0.129-0.061 0.187-0.094zm0.344 0.5c0.499 0.1 1.07 0.706 1.156 1.032-0.447 0.172-0.899 0.371-1.344 0.593 0.014-0.073 0.055-0.143 0.063-0.218s-0.317-0.331-0.313-0.407c0.005-0.079 0.312 0.018 0.313-0.062 0.003-0.288 0.012-0.575-0.031-0.875 0.052-0.019 0.105-0.046 0.156-0.063zm-17.594 0.407c0.334 0.342 0.715 0.707 1.156 1-0.075 0.038-0.148 0.08-0.218 0.125-0.512-0.321-1.018-0.65-1.532-0.969 0.191-0.068 0.393-0.109 0.594-0.156zm16.125 0l0.875 0.625c-0.039 0.305-0.115 0.589-0.219 0.875-0.282-0.211-0.56-0.445-0.843-0.657 0.069-0.268 0.144-0.553 0.187-0.843zm-13.969 0.125c1.163 0.865 2.363 1.717 3.563 2.531-0.056 0.287-0.122 0.57-0.156 0.875-1.307-0.861-2.485-1.802-3.532-2.813 0.031-0.196 0.086-0.391 0.125-0.593zm7.25 0.031l1.25 0.844c-0.197 0.357-0.403 0.707-0.562 1.062-0.441-0.279-0.849-0.561-1.281-0.844 0.169-0.37 0.364-0.706 0.593-1.062zm-10.093 0.031c0.51 0.324 1.022 0.644 1.531 0.969-0.415 0.267-0.845 0.567-1.219 0.875-0.533-0.348-1.086-0.684-1.625-1.031 0.352-0.355 0.824-0.626 1.313-0.813zm-1.375 0.875c0.535 0.351 1.063 0.71 1.593 1.063-0.357 0.301-0.684 0.595-1 0.937l-1.468-1c0.287-0.338 0.562-0.689 0.875-1zm17.937 0l0.875 0.563c-0.098 0.247-0.24 0.483-0.375 0.718l-0.781-0.468c0.118-0.259 0.2-0.534 0.281-0.813zm-14.531 0.063c0.192 0.108 0.379 0.197 0.594 0.25 0.005-0.048 0.025-0.108 0.031-0.157 0.354 0.306 0.724 0.606 1.094 0.907-3.573 2.048-4.396 4.769-5.563 8.187-0.545-0.312-1.217-0.58-1.469-1.375 0.845-2.944 1.803-5.849 5.313-7.812zm7.406 0.218c0.431 0.282 0.842 0.57 1.281 0.844-0.185 0.421-0.327 0.812-0.468 1.188-0.435-0.28-0.883-0.559-1.313-0.844 0.122-0.407 0.322-0.784 0.5-1.188zm9.281 0.094c0.404 0.33 0.835 0.663 1.219 1-0.551 0.012-1.072 0.105-1.531 0.281-0.192-0.162-0.392-0.317-0.594-0.468 0.031-0.087 0.066-0.163 0.094-0.25 0.01-0.032-0.055-0.088-0.125-0.157 0.074-0.033 0.142-0.092 0.219-0.125 0.236-0.099 0.465-0.192 0.718-0.281zm-2.5 0.531l0.782 0.5c-0.128 0.211-0.289 0.423-0.438 0.625l-0.656-0.5c0.13-0.197 0.211-0.416 0.312-0.625zm-18.531 0.157l1.469 1.031c-0.272 0.3-0.512 0.605-0.75 0.937l-1.469-1c0.217-0.336 0.491-0.657 0.75-0.968zm6.344 0.218c0.678 0.543 1.371 1.086 2.125 1.594-0.007 0.055 0.003 0.104 0 0.156-0.798-0.546-1.612-1.092-2.438-1.625 0.097-0.052 0.21-0.079 0.313-0.125zm13.75 0.032c0.171 0.133 0.338 0.274 0.5 0.406-0.358 0.152-0.668 0.361-0.969 0.594 0.094-0.16 0.167-0.337 0.25-0.5 0.025-0.049-0.211-0.232-0.187-0.282 0.025-0.052 0.32 0.022 0.343-0.031 0.028-0.062 0.038-0.124 0.063-0.187zm-14.188 0.187c0.85 0.559 1.7 1.115 2.532 1.688-0.002 0.021 0.001 0.04 0 0.062 0.404 0.498 0.77 0.79 1.187 0.969-0.375 0.238-0.745 0.479-1.094 0.75-1.242-0.888-2.536-1.785-3.843-2.656 0.376-0.297 0.762-0.554 1.218-0.813zm5.313 0.125c0.42 0.278 0.856 0.54 1.281 0.813-0.049 0.132-0.111 0.284-0.156 0.406-0.038 0.301-0.032 0.6-0.031 0.875-0.449-0.264-0.904-0.537-1.344-0.813 0.078-0.415 0.127-0.854 0.25-1.281zm6.875 0.063l0.687 0.468c-0.165 0.218-0.352 0.416-0.531 0.625l-0.687-0.5c0.184-0.199 0.384-0.384 0.531-0.593zm4.406 0.031c0.047-0.003 0.265 0.189 0.313 0.187 0.083 1.97-0.519 3.449-1.5 4.594-0.164 0.191-0.317 0.387-0.5 0.563-0.184 0.175-0.394 0.307-0.594 0.468-0.93 0.75-2 1.361-3.125 1.938-0.123-0.139-0.206-0.317-0.25-0.5-0.009-0.036-0.314-0.216-0.375-0.281 0.057-0.003 0.348 0.104 0.344 0.062-0.096-0.4-0.006-0.761 0.031-1.125 0.012-0.05-0.232-0.293-0.219-0.344 0.013-0.05 0.299 0.082 0.313 0.032 0.107-0.394 0.254-0.78 0.406-1.157 0.015-0.036-0.266-0.182-0.25-0.218 0.014-0.035 0.329 0.034 0.344 0 0.136-0.316 0.27-0.611 0.437-0.907 0.022-0.038-0.147-0.212-0.125-0.25 0.021-0.035 0.229 0.067 0.25 0.032 0.18-0.299 0.373-0.581 0.594-0.844 0.026-0.031-0.056-0.144-0.094-0.219 0.019-0.022 0.043-0.04 0.063-0.062 0.101 0.013 0.249 0.065 0.281 0.031 0.248-0.266 0.521-0.503 0.812-0.719 0.048-0.035-0.204-0.279-0.156-0.312 0.05-0.035 0.418 0.126 0.469 0.093 0.31-0.2 0.613-0.364 0.969-0.5 0.062-0.023-0.126-0.353-0.063-0.375 0.068-0.023 0.399 0.271 0.469 0.25 0.375-0.11 0.796-0.218 1.219-0.25 0.039-0.002-0.103-0.185-0.063-0.187zm0.719 0.219c0.09 0.002 0.158-0.006 0.25 0 0.148 0.294 0.263 0.597 0.344 0.875l-0.625-0.5c0.005-0.133 0.027-0.238 0.031-0.375zm-24.031 0.187l1.468 1c-0.24 0.343-0.485 0.684-0.687 1.063-0.455-0.331-0.893-0.67-1.344-1 0.152-0.376 0.344-0.716 0.563-1.063zm19.968 0.188c0.033-0.05 0.337 0.088 0.407 0.062-0.058 0.046-0.131 0.077-0.188 0.125-0.072-0.055-0.149-0.1-0.219-0.156-0.005-0.004 0.005-0.027 0-0.031zm-14.562 0.093c1.287 0.867 2.544 1.773 3.781 2.657-0.374 0.298-0.697 0.596-1.031 0.937l-3.813-2.594c0.31-0.344 0.677-0.686 1.063-1zm12.844 0l0.687 0.5c-0.164 0.189-0.302 0.38-0.469 0.563-0.013 0.012-0.018 0.051-0.031 0.062l-0.781-0.625c0.204-0.168 0.423-0.325 0.594-0.5zm5.718 0.125l0.719 0.469c0.098 0.404 0.118 0.785 0.094 1.156l-0.875-0.625c0.04-0.317 0.044-0.652 0.062-1zm-12.218 0.5c0.452 0.281 0.913 0.577 1.375 0.844 0.01 0.255 0.046 0.495 0.125 0.719-0.575-0.253-1.1-0.539-1.625-0.813 0.034-0.243 0.079-0.497 0.125-0.75zm5.781 0l0.812 0.594c-0.21 0.183-0.419 0.341-0.656 0.5l-0.75-0.656c0.212-0.143 0.409-0.292 0.594-0.438zm1.875 0.094c0.008-0.009 0.06-0.008 0.094 0-0.02 0.021-0.043 0.041-0.063 0.063-0.011-0.02-0.038-0.055-0.031-0.063zm-20 0.156c0.451 0.331 0.891 0.67 1.344 1-0.195 0.374-0.345 0.779-0.5 1.188-0.387-0.278-0.771-0.567-1.157-0.844 0.05-0.466 0.149-0.917 0.313-1.344zm4.875 0.219l3.781 2.594c-0.272 0.285-0.542 0.62-0.781 0.937l-3.75-2.593c0.219-0.332 0.475-0.624 0.75-0.938zm12.437 0.094l0.813 0.625c-0.271 0.172-0.566 0.299-0.875 0.437l-0.75-0.531c0.308-0.17 0.547-0.36 0.812-0.531zm7.157 0.187l0.875 0.594c-0.039 0.305-0.115 0.589-0.219 0.875-0.283-0.211-0.56-0.413-0.844-0.625 0.069-0.268 0.144-0.553 0.188-0.844zm-5.157 0.063c0.027-0.027 0.125-0.002 0.219 0.031-0.052 0.077-0.076 0.172-0.125 0.25-0.043-0.107-0.13-0.245-0.094-0.281zm-2.968 0.375l0.781 0.5c-0.282 0.119-0.59 0.225-0.906 0.312l-0.594-0.437c0.248-0.121 0.494-0.254 0.719-0.375zm-4.188 0.031c0.415 0.241 0.821 0.486 1.25 0.719-2.692 1.415-5.147 3.782-5.625 8.247-0.235 0.34-0.93 0.37-1.469-0.56-0.057-1.052 0.095-2.007 0.407-2.906 0.01 0.007 0.021-0.007 0.031 0v-0.094c0.846-2.338 2.755-4.131 4.719-5.312 0.191 0.047 0.401 0.101 0.625 0.125 0.008-0.073 0.052-0.145 0.062-0.219zm7.031 0.188c-0.042 0.072-0.083 0.145-0.125 0.218l-0.062-0.031c0.069-0.058 0.12-0.127 0.187-0.187zm-15.093 0.093l3.718 2.594c-0.25 0.342-0.511 0.681-0.718 1.063-1.235-0.833-2.469-1.684-3.657-2.532 0.179-0.38 0.419-0.756 0.657-1.125zm14.562 0.063c0.015-0.013 0.058 0.021 0.094 0.031l0.25 0.156c-0.198 0.358-0.372 0.708-0.531 1.063-0.236-0.149-0.456-0.317-0.688-0.469-0.025-0.074-0.101-0.198-0.062-0.219 0.057-0.03 0.35 0.126 0.406 0.094 0.373 0.29 0.386-0.18 0.562-0.344 0.045-0.038-0.076-0.274-0.031-0.312zm-3.125 0.062l0.531 0.438c-0.087 0.022-0.191 0.043-0.281 0.062-0.374-0.054-0.629-0.112-0.844-0.218 0.214-0.097 0.395-0.186 0.594-0.282zm-15.875 0.094c0.376 0.27 0.75 0.541 1.125 0.813-0.138 0.372-0.271 0.753-0.375 1.156-0.165-0.124-0.334-0.221-0.5-0.344-0.073-0.207-0.145-0.465-0.25-0.656-0.037-0.333-0.026-0.654 0-0.969zm24.563 0.094l0.875 0.562c-0.098 0.248-0.24 0.484-0.375 0.719l-0.782-0.5c0.118-0.258 0.2-0.503 0.282-0.781zm-10.344 0.375c0.283 0.148 0.581 0.296 0.875 0.437 0.13 0.085 0.551 0.196 0.875 0.313-0.525 0.018-0.996 0.112-1.438 0.281-0.31-0.262-0.644-0.492-0.968-0.75 0.201-0.099 0.433-0.188 0.656-0.281zm3.812 0.25c0.241 0.155 0.477 0.318 0.719 0.469-0.185 0.421-0.358 0.843-0.5 1.218-0.147-0.094-0.292-0.187-0.437-0.281-0.088-0.243-0.177-0.495-0.313-0.75-0.079-0.091-0.221-0.188-0.312-0.281 0.008-0.017-0.024-0.041-0.032-0.063 0.021-0.052 0.041-0.104 0.063-0.156 0.104 0.054 0.194 0.103 0.219 0.094 0.205-0.075 0.404-0.162 0.593-0.25zm-4.625 0.125c0.317 0.246 0.661 0.467 0.969 0.719-0.453 0.193-0.816 0.468-1.187 0.781-0.335-0.258-0.69-0.494-1.032-0.75 0.376-0.276 0.791-0.514 1.25-0.75zm10.813 0.156l0.781 0.5c-0.128 0.211-0.289 0.423-0.437 0.625l-0.657-0.5c0.13-0.198 0.212-0.416 0.313-0.625zm-20.469 0.031c1.197 0.858 2.421 1.697 3.656 2.532-0.189 0.362-0.384 0.756-0.531 1.156-0.003 0.007-0.028-0.007-0.031 0-1.199-0.819-2.385-1.662-3.563-2.5 0.127-0.393 0.291-0.796 0.469-1.188zm12.563 0.532c0.046-0.003 0.265 0.189 0.312 0.187 0.084 1.97-0.518 3.449-1.5 4.594-0.164 0.191-0.317 0.387-0.5 0.562-0.183 0.176-0.394 0.339-0.594 0.5-0.929 0.75-1.999 1.33-3.125 1.91-0.122-0.14-0.237-0.32-0.281-0.5-0.01-0.04-0.399-0.27-0.406-0.32-0.008-0.04 0.38 0.14 0.375 0.1-0.096-0.4 0.025-0.76 0.062-1.13 0.013-0.05-0.263-0.29-0.25-0.341s0.33 0.113 0.344 0.063c0.108-0.394 0.223-0.812 0.375-1.188 0.015-0.037-0.234-0.182-0.219-0.219 0.015-0.034 0.329 0.066 0.344 0.032 0.136-0.316 0.27-0.642 0.438-0.938 0.021-0.038-0.179-0.212-0.157-0.25 0.021-0.035 0.26 0.067 0.282 0.031 0.18-0.298 0.372-0.58 0.593-0.843 0.035-0.041-0.191-0.241-0.156-0.282 0.041-0.046 0.364 0.077 0.406 0.032 0.249-0.266 0.522-0.503 0.813-0.719 0.047-0.035-0.205-0.279-0.156-0.313s0.386 0.127 0.437 0.094c0.311-0.2 0.613-0.364 0.969-0.5 0.062-0.023-0.095-0.353-0.031-0.375 0.068-0.023 0.398 0.271 0.468 0.25 0.375-0.11 0.766-0.187 1.188-0.219 0.039-0.002-0.071-0.216-0.031-0.218zm-4.282 0.125c0.343 0.254 0.661 0.495 1 0.75-0.32 0.286-0.611 0.623-0.875 0.968l-1.156-0.812c0.301-0.322 0.652-0.617 1.031-0.906zm11.75 0.062l0.688 0.5c-0.165 0.218-0.352 0.416-0.531 0.625l-0.688-0.5c0.185-0.199 0.384-0.416 0.531-0.625zm-6.781 0.031c0.023 0.001 0.042 0.001 0.063 0 0.095 0.063 0.186 0.127 0.281 0.188 0.113 0.233 0.218 0.469 0.281 0.687l-0.656-0.5c0.005-0.132 0.028-0.237 0.031-0.375zm-16.656 0.032c0.127 0.094 0.248 0.186 0.375 0.281-0.002 0.008 0.002 0.023 0 0.031-0.185-0.07-0.297-0.194-0.375-0.312zm17.531 0.5c0.102 0.065 0.209 0.121 0.313 0.187-0.05 0.133-0.081 0.284-0.125 0.406-0.006 0.043 0.004 0.083 0 0.125-0.097-0.08-0.236-0.174-0.25-0.218-0.03-0.094 0.214-0.062 0.187-0.157-0.033-0.115-0.087-0.227-0.125-0.343zm-14.625 0.031c1.177 0.839 2.393 1.683 3.594 2.5-0.143 0.409-0.281 0.83-0.375 1.281-1.201-0.813-2.398-1.636-3.563-2.5 0.085-0.419 0.211-0.85 0.344-1.281zm13.719 0.031l0.719 0.469c0.065 0.269 0.065 0.528 0.062 0.781-0.282-0.165-0.566-0.33-0.844-0.5 0.028-0.244 0.049-0.489 0.063-0.75zm6.156 0.125l0.688 0.469c-0.164 0.188-0.302 0.411-0.469 0.594-0.013 0.012-0.018 0.019-0.031 0.031l-0.782-0.594c0.204-0.169 0.423-0.326 0.594-0.5zm-12.187 0.219l1.156 0.781c-0.238 0.322-0.46 0.654-0.656 1l-1.219-0.844c0.214-0.321 0.446-0.635 0.719-0.937zm11.468 0.406l0.813 0.563c-0.211 0.182-0.419 0.372-0.656 0.531l-0.75-0.656c0.211-0.144 0.409-0.292 0.593-0.438zm-5.531 0.156c0.287 0.175 0.583 0.334 0.875 0.5-0.003 0.074 0.005 0.147 0 0.219l-0.875-0.625c0.004-0.029-0.004-0.064 0-0.094zm-0.031 0.344l0.875 0.594c-0.009 0.07-0.019 0.148-0.031 0.219-0.317-0.143-0.634-0.284-0.938-0.438 0.029-0.126 0.074-0.245 0.094-0.375zm4.75 0.063l0.844 0.593c-0.271 0.173-0.597 0.331-0.907 0.469l-0.75-0.531c0.309-0.17 0.548-0.36 0.813-0.531zm-18.688 0.062c1.163 0.865 2.332 1.718 3.532 2.531-0.056 0.287-0.091 0.539-0.125 0.844-1.307-0.861-2.485-1.771-3.532-2.781 0.031-0.197 0.086-0.392 0.125-0.594zm7.25 0l1.219 0.875c-0.197 0.357-0.372 0.708-0.531 1.063-0.441-0.28-0.881-0.562-1.313-0.844 0.17-0.37 0.396-0.738 0.625-1.094zm7.813 0.406c0.02 0 0.036 0.028 0.062 0.032 0.009 0.074 0.016 0.147 0.032 0.218-0.072-0.09-0.159-0.18-0.157-0.218 0.002-0.02 0.033-0.031 0.063-0.032zm2.656 0.157l0.781 0.5c-0.281 0.119-0.59 0.224-0.906 0.312l-0.594-0.437c0.248-0.121 0.495-0.254 0.719-0.375zm-3.969 0.156c0.287 0.163 0.581 0.342 0.875 0.5-0.016 0.051-0.013 0.106-0.031 0.156-0.283-0.211-0.56-0.444-0.844-0.656zm-0.031 0.219l0.844 0.562c-0.098 0.248-0.209 0.484-0.344 0.719l-0.812-0.5c0.117-0.258 0.231-0.503 0.312-0.781zm3.188 0.031l0.531 0.437c-0.088 0.023-0.191 0.043-0.281 0.063-0.375-0.055-0.629-0.112-0.844-0.219 0.214-0.096 0.395-0.185 0.594-0.281zm-10.344 0.25c0.43 0.281 0.873 0.538 1.312 0.812-0.185 0.421-0.327 0.844-0.468 1.219-0.435-0.28-0.883-0.559-1.313-0.844 0.122-0.407 0.291-0.784 0.469-1.187zm6.781 0.625l0.781 0.5c-0.127 0.211-0.257 0.423-0.406 0.625l-0.687-0.5c0.129-0.198 0.211-0.416 0.312-0.625zm-7.281 0.687c0.42 0.278 0.856 0.571 1.281 0.844-0.049 0.133-0.111 0.251-0.156 0.371-0.038 0.3-0.063 0.6-0.063 0.88-0.448-0.26-0.872-0.51-1.312-0.78 0.078-0.418 0.127-0.888 0.25-1.315zm6.844 0.063l0.687 0.5c-0.165 0.217-0.352 0.416-0.531 0.622l-0.656-0.497c0.184-0.2 0.353-0.416 0.5-0.625zm-0.625 0.75l0.687 0.472c-0.164 0.18-0.302 0.41-0.469 0.59-0.013 0.01-0.018 0.02-0.031 0.03l-0.781-0.59c0.204-0.17 0.423-0.328 0.594-0.502zm-6.5 0.622c0.452 0.28 0.882 0.55 1.343 0.82 0.011 0.25 0.078 0.52 0.157 0.75-0.575-0.26-1.131-0.54-1.657-0.82 0.035-0.24 0.111-0.49 0.157-0.75zm5.781 0l0.812 0.57c-0.21 0.18-0.419 0.37-0.656 0.53l-0.75-0.66c0.212-0.14 0.409-0.29 0.594-0.44zm-0.813 0.57l0.813 0.59c-0.271 0.17-0.597 0.33-0.906 0.47l-0.75-0.53c0.308-0.17 0.578-0.36 0.843-0.53zm-0.968 0.62l0.75 0.5c-0.282 0.12-0.591 0.23-0.907 0.31l-0.562-0.43c0.248-0.13 0.494-0.26 0.719-0.38zm-0.844 0.41l0.531 0.43c-0.087 0.03-0.16 0.05-0.25 0.07-0.374-0.06-0.66-0.08-0.875-0.19 0.214-0.1 0.395-0.22 0.594-0.31z"/>
  </g>
  <metadata>
    <rdf:RDF>
      <cc:Work>
        <dc:format>image/svg+xml</dc:format>
        <dc:type rdf:resource="http://purl.org/dc/dcmitype/StillImage"/>
        <cc:license rdf:resource="http://creativecommons.org/licenses/publicdomain/"/>
        <dc:publisher>
          <cc:Agent rdf:about="http://openclipart.org/">
            <dc:title>Openclipart</dc:title>
          </cc:Agent>
        </dc:publisher>
        <dc:title>RPG map symbols: Tavern</dc:title>
        <dc:date>2008-01-23T11:27:42</dc:date>
        <dc:description>Part of the fantasy RPG map elements collection (houses and various buildings): a tavern</dc:description>
        <dc:source>http://openclipart.org/detail/11518/rpg-map-symbols:-tavern-by-nicubunu</dc:source>
        <dc:creator>
          <cc:Agent>
            <dc:title>nicubunu</dc:title>
          </cc:Agent>
        </dc:creator>
        <dc:subject>
          <rdf:Bag>
            <rdf:li>building</rdf:li>
            <rdf:li>cartography</rdf:li>
            <rdf:li>clip art</rdf:li>
            <rdf:li>clipart</rdf:li>
            <rdf:li>fantasy</rdf:li>
            <rdf:li>geography</rdf:li>
            <rdf:li>image</rdf:li>
            <rdf:li>inn</rdf:li>
            <rdf:li>map</rdf:li>
            <rdf:li>media</rdf:li>
            <rdf:li>png</rdf:li>
            <rdf:li>public domain</rdf:li>
            <rdf:li>svg</rdf:li>
            <rdf:li>tavern</rdf:li>
            <rdf:li>wooden</rdf:li>
          </rdf:Bag>
        </dc:subject>
      </cc:Work>
      <cc:License rdf:about="http://creativecommons.org/licenses/publicdomain/">
        <cc:permits rdf:resource="http://creativecommons.org/ns#Reproduction"/>
        <cc:permits rdf:resource="http://creativecommons.org/ns#Distribution"/>
        <cc:permits rdf:resource="http://creativecommons.org/ns#DerivativeWorks"/>
      </cc:License>
    </rdf:RDF>
  </metadata>
</svg>
