<svg id="Layer_1" enable-background="new 0 0 512 512" height="512" viewBox="0 0 512 512" width="512" xmlns="http://www.w3.org/2000/svg"><path d="m497 60.445h.01z"/><g><circle cx="464.967" cy="464.967" fill="#875f4b" r="47.033"/><path d="m498.224 431.71c-18.368-18.367-48.147-18.367-66.514 0l66.514 66.514c18.368-18.367 18.368-48.147 0-66.514z" fill="#5d3935"/><path d="m71.051 4.394c-2.813-2.814-6.628-4.394-10.607-4.394h-45.444c-8.284 0-15 6.716-15 15v45.445c0 3.979 1.58 7.794 4.394 10.606l322.715 322.715c5.858 5.858 15.355 5.858 21.213 0l45.444-45.444c5.858-5.858 5.858-15.355 0-21.213z" fill="#faf5f0"/><path d="m393.766 327.109-322.715-322.715c-2.813-2.814-6.628-4.394-10.607-4.394h-45.444c-4.142 0-7.892 1.679-10.607 4.394l366.65 366.65 22.722-22.722c5.859-5.858 5.859-15.355.001-21.213z" fill="#e6e3dc"/><path d="m327.18 393.695 58.513 58.513c18.238 18.238 47.949 19.042 66.489 1.111 18.939-18.317 19.13-48.522.573-67.079l-59.06-59.06c-5.858-5.858-15.355-5.858-21.213 0l-45.301 45.301c-5.858 5.859-5.858 15.357-.001 21.214z" fill="#b28562"/><path d="m452.755 386.241-59.06-59.06c-5.858-5.858-15.355-5.858-21.213 0l-22.651 22.651 102.915 102.915c18.365-18.369 18.376-48.139.009-66.506z" fill="#875f4b"/><path d="m422.135 277.527-144.608 144.609c-5.857 5.857-5.857 15.355 0 21.213 5.858 5.858 15.356 5.858 21.213 0l144.608-144.609c5.857-5.857 5.857-15.356 0-21.213-5.857-5.858-15.356-5.858-21.213 0z" fill="#dcaa78"/><path d="m443.348 277.527c-5.857-5.858-15.356-5.858-21.213 0l-72.304 72.304 21.213 21.213 72.304-72.304c5.857-5.857 5.857-15.355 0-21.213z" fill="#b28562"/><circle cx="47.033" cy="464.967" fill="#875f4b" r="47.033"/><path d="m80.29 498.224c18.368-18.368 18.367-48.147 0-66.514l-66.514 66.514c18.367 18.368 48.147 18.368 66.514 0z" fill="#5d3935"/><path d="m507.606 71.051c2.814-2.813 4.394-6.628 4.394-10.607v-45.444c0-8.284-6.716-15-15-15h-45.445c-3.979 0-7.794 1.58-10.606 4.394l-322.715 322.714c-5.858 5.858-5.858 15.355 0 21.213l45.444 45.444c5.858 5.858 15.355 5.858 21.213 0z" fill="#faf5f0"/><path d="m184.891 393.766 322.715-322.715c2.814-2.813 4.394-6.628 4.394-10.607v-45.444c0-4.142-1.679-7.892-4.394-10.607l-366.65 366.65 22.722 22.722c5.858 5.859 15.355 5.859 21.213.001z" fill="#e6e3dc"/><path d="m118.305 327.18-58.513 58.513c-18.238 18.238-19.042 47.949-1.111 66.489 18.317 18.939 48.522 19.13 67.079.573l59.06-59.06c5.858-5.858 5.858-15.355 0-21.213l-45.301-45.301c-5.859-5.858-15.357-5.858-21.214-.001z" fill="#b28562"/><path d="m125.759 452.755 59.06-59.06c5.858-5.858 5.858-15.355 0-21.213l-22.651-22.651-102.914 102.915c18.368 18.365 48.138 18.376 66.505.009z" fill="#875f4b"/><path d="m234.473 422.135-144.609-144.608c-5.857-5.857-15.355-5.857-21.213 0-5.858 5.858-5.858 15.356 0 21.213l144.609 144.608c5.857 5.857 15.356 5.857 21.213 0 5.858-5.857 5.858-15.356 0-21.213z" fill="#dcaa78"/><path d="m234.473 443.348c5.858-5.857 5.858-15.356 0-21.213l-72.304-72.304-21.213 21.213 72.304 72.304c5.857 5.857 15.355 5.857 21.213 0z" fill="#b28562"/></g></svg>