<?xml version="1.0" encoding="iso-8859-1"?>
<!-- Generator: Adobe Illustrator 19.0.0, SVG Export Plug-In . SVG Version: 6.00 Build 0)  -->
<svg version="1.1" id="Capa_1" xmlns="http://www.w3.org/2000/svg" xmlns:xlink="http://www.w3.org/1999/xlink" x="0px" y="0px"
	 viewBox="0 0 509.019 509.019" style="enable-background:new 0 0 509.019 509.019;" xml:space="preserve">
<path style="fill:#997960;" d="M186.309,495.392c9.568-8.864,19.776-30.96,30.864-75.712c0.048-0.176,0.08-0.32,0.096-0.496
	c0.56-3.456,8.576-58.784-9.568-111.232c-1.824-5.264,4.816-9.28,8.576-5.168l5.856,17.584c3.152,3.456,8.896,1.216,8.896-3.456
	v-31.984c0-3.024,2.608-5.392,5.616-5.088l29.04,2.848c2.624,0.256,4.624,2.464,4.624,5.088v22.464c0,4.64,5.68,6.88,8.848,3.504
	l19.2-20.48c2.8-2.992,7.824-1.632,8.72,2.368l2.496,11.024c0.448,1.984-0.304,4.064-1.952,5.248
	c-11.408,8.16-48.352,44.96-31.824,131.008c0.048,0.256,0.096,0.48,0.192,0.72c1.104,3.264,4.816,29.232,26.992,50.24
	c2.944,2.784,1.712,7.696-2.208,8.672c-5.664,1.424-12.72,3.328-17.952,5.184c-15.216,5.376-35.808-7.472-42.72-12.256
	c-1.504-1.04-3.392-1.184-5.04-0.416c-7.808,3.696-30.56,13.888-39.424,11.36c-3.024-0.864-5.552-1.728-7.648-2.528
	C184.389,502.576,183.493,498,186.309,495.392z"/>
<path style="fill:#8BC540;" d="M393.973,156.048c13.728-16.496,21.984-37.696,21.984-60.832C415.957,42.64,373.333,0,320.741,0
	c-33.664,0-63.184,17.52-80.112,43.888c-11.472-9.376-25.936-15.232-41.904-15.232c-34.032,0-61.776,25.632-65.76,58.592
	c-1.2-0.064-2.336-0.352-3.568-0.352c-36.752,0-66.56,29.792-66.56,66.56c0,10.08,2.416,19.536,6.432,28.112
	c-17.104,17.216-27.68,40.928-27.68,67.104c0,52.592,42.624,95.216,95.216,95.216c37.936,0,70.608-22.256,85.904-54.368
	c9.632,4.368,20.224,6.944,31.488,6.944c11.456,0,22.224-2.704,31.984-7.216c15.248,32.256,47.984,54.64,86.032,54.64
	c52.592,0,95.216-42.624,95.216-95.216C467.43,203.584,436.053,165.904,393.973,156.048z"/>
<g>
	<circle style="fill:#7FB241;" cx="196.661" cy="93.696" r="21.504"/>
	<circle style="fill:#7FB241;" cx="331.206" cy="50.688" r="21.504"/>
	<circle style="fill:#7FB241;" cx="292.021" cy="171.936" r="25.888"/>
	<circle style="fill:#7FB241;" cx="151.365" cy="168.512" r="39.584"/>
	<circle style="fill:#7FB241;" cx="152.885" cy="271.648" r="33.504"/>
	<circle style="fill:#7FB241;" cx="385.861" cy="264.224" r="50.848"/>
</g>
<g>
</g>
<g>
</g>
<g>
</g>
<g>
</g>
<g>
</g>
<g>
</g>
<g>
</g>
<g>
</g>
<g>
</g>
<g>
</g>
<g>
</g>
<g>
</g>
<g>
</g>
<g>
</g>
<g>
</g>
</svg>
